<?xml version="1.0" encoding="UTF-8" standalone="no"?><svg xmlns="http://www.w3.org/2000/svg" xmlns:xlink="http://www.w3.org/1999/xlink" contentScriptType="application/ecmascript" contentStyleType="text/css" height="778px" preserveAspectRatio="none" style="width:1453px;height:778px;" version="1.1" viewBox="0 0 1453 778" width="1453px" zoomAndPan="magnify"><defs><filter height="300%" id="f1q1ynhpn3p2ew" width="300%" x="-1" y="-1"><feGaussianBlur result="blurOut" stdDeviation="2.0"/><feColorMatrix in="blurOut" result="blurOut2" type="matrix" values="0 0 0 0 0 0 0 0 0 0 0 0 0 0 0 0 0 0 .4 0"/><feOffset dx="4.0" dy="4.0" in="blurOut2" result="blurOut3"/><feBlend in="SourceGraphic" in2="blurOut3" mode="normal"/></filter></defs><g><!--MD5=[80484a0aee5dd73d603f9a19d60bc4b3]
cluster checkers.controllers--><polygon fill="#FFFFFF" filter="url(#f1q1ynhpn3p2ew)" points="396,94,566,94,573,116.2969,1018,116.2969,1018,632,396,632,396,94" style="stroke: #000000; stroke-width: 1.5;"/><line style="stroke: #000000; stroke-width: 1.5;" x1="396" x2="573" y1="116.2969" y2="116.2969"/><text fill="#000000" font-family="sans-serif" font-size="14" font-weight="bold" lengthAdjust="spacingAndGlyphs" textLength="164" x="400" y="108.9951">checkers.controllers</text><!--MD5=[9d10f3b76820d8de6dfb0f801fce5179]
cluster checkers.views--><polygon fill="#FFFFFF" filter="url(#f1q1ynhpn3p2ew)" points="1042,113,1172,113,1179,135.2969,1431,135.2969,1431,753,1042,753,1042,113" style="stroke: #000000; stroke-width: 1.5;"/><line style="stroke: #000000; stroke-width: 1.5;" x1="1042" x2="1179" y1="135.2969" y2="135.2969"/><text fill="#000000" font-family="sans-serif" font-size="14" font-weight="bold" lengthAdjust="spacingAndGlyphs" textLength="124" x="1046" y="127.9951">checkers.views</text><!--MD5=[510caaec7b953c623f567a33623955d7]
cluster checkers.models--><polygon fill="#FFFFFF" filter="url(#f1q1ynhpn3p2ew)" points="22,272,163,272,170,294.2969,372,294.2969,372,766,22,766,22,272" style="stroke: #000000; stroke-width: 1.5;"/><line style="stroke: #000000; stroke-width: 1.5;" x1="22" x2="170" y1="294.2969" y2="294.2969"/><text fill="#000000" font-family="sans-serif" font-size="14" font-weight="bold" lengthAdjust="spacingAndGlyphs" textLength="135" x="26" y="286.9951">checkers.models</text><!--MD5=[42fa18dda7351a0ae87d9497de925436]
class Logic--><rect fill="#FEFECE" filter="url(#f1q1ynhpn3p2ew)" height="99.2188" id="Logic" style="stroke: #A80036; stroke-width: 1.5;" width="108" x="412" y="129"/><ellipse cx="446.8" cy="145" fill="#ADD1B2" rx="11" ry="11" style="stroke: #A80036; stroke-width: 1.0;"/><path d="M449.1438,140.6719 L449.3156,140.75 C449.5344,140.4375 449.7375,140.3438 450.0344,140.3438 C450.3313,140.3438 450.6125,140.4844 450.7688,140.75 C450.8625,140.9063 450.8781,141.0313 450.8781,141.4688 L450.8781,142.8906 C450.8781,143.3125 450.8469,143.5 450.7375,143.6563 C450.5656,143.875 450.3,144.0156 450.0344,144.0156 C449.8156,144.0156 449.5813,143.9063 449.4406,143.7656 C449.3,143.6406 449.2688,143.5156 449.2063,143.1094 C449.1125,142.7031 448.9406,142.4844 448.4563,142.2031 C447.9875,141.9531 447.3781,141.7969 446.8,141.7969 C445.0656,141.7969 443.8156,143.1094 443.8156,144.8906 L443.8156,145.9844 C443.8156,147.6875 445.1125,148.7813 447.1594,148.7813 C447.925,148.7813 448.6125,148.6563 449.0344,148.3906 C449.2219,148.2969 449.2219,148.2969 449.675,147.8125 C449.8625,147.625 450.0656,147.5469 450.2844,147.5469 C450.7531,147.5469 451.1438,147.9375 451.1438,148.3906 C451.1438,148.7813 450.8156,149.2344 450.2375,149.6406 C449.4875,150.1875 448.3313,150.4844 447.1125,150.4844 C444.2219,150.4844 442.1125,148.5938 442.1125,146.0156 L442.1125,144.8906 C442.1125,142.1719 444.1125,140.0938 446.7375,140.0938 C447.6125,140.0938 448.2063,140.2344 449.1438,140.6719 Z "/><text fill="#000000" font-family="sans-serif" font-size="12" lengthAdjust="spacingAndGlyphs" textLength="32" x="465.2" y="149.1543">Logic</text><line style="stroke: #A80036; stroke-width: 1.5;" x1="413" x2="519" y1="161" y2="161"/><ellipse cx="423" cy="172" fill="none" rx="3" ry="3" style="stroke: #038048; stroke-width: 1.0;"/><text fill="#000000" font-family="sans-serif" font-size="11" lengthAdjust="spacingAndGlyphs" textLength="67" x="432" y="175.2104">state: State</text><rect fill="none" height="6" style="stroke: #C82930; stroke-width: 1.0;" width="6" x="420" y="181.8047"/><text fill="#000000" font-family="sans-serif" font-size="11" lengthAdjust="spacingAndGlyphs" textLength="61" x="432" y="188.0151">controllers</text><ellipse cx="423" cy="197.6094" fill="none" rx="3" ry="3" style="stroke: #038048; stroke-width: 1.0;"/><text fill="#000000" font-family="sans-serif" font-size="11" lengthAdjust="spacingAndGlyphs" textLength="74" x="432" y="200.8198">game: Game</text><line style="stroke: #A80036; stroke-width: 1.5;" x1="413" x2="519" y1="207.4141" y2="207.4141"/><ellipse cx="423" cy="218.4141" fill="#84BE84" rx="3" ry="3" style="stroke: #038048; stroke-width: 1.0;"/><text fill="#000000" font-family="sans-serif" font-size="11" lengthAdjust="spacingAndGlyphs" textLength="82" x="432" y="221.6245">getController()</text><!--MD5=[1d7ba1c7002d54515419844fbd155368]
class Controller--><rect fill="#FEFECE" filter="url(#f1q1ynhpn3p2ew)" height="60.8047" id="Controller" style="stroke: #A80036; stroke-width: 1.5;" width="163" x="555.5" y="148"/><ellipse cx="602.25" cy="164" fill="#A9DCDF" rx="11" ry="11" style="stroke: #A80036; stroke-width: 1.0;"/><path d="M603.8281,165.8125 L599.7813,165.8125 L599.3906,166.7969 L599.7813,166.7969 C600.2344,166.7969 600.375,166.8281 600.5469,166.9531 C600.7656,167.125 600.8906,167.375 600.8906,167.6563 C600.8906,167.9375 600.75,168.2344 600.4844,168.375 C600.3594,168.4688 600.1406,168.5 599.7813,168.5 L597.5156,168.5 C596.7656,168.5 596.3906,168.2188 596.3906,167.6563 C596.3906,167.3594 596.5469,167.0781 596.7969,166.9219 C596.9531,166.8125 597.1094,166.7969 597.5313,166.7969 L600.1719,160.2813 L599.0938,160.2813 C598.6563,160.2813 598.4844,160.25 598.3125,160.1406 C598.0938,159.9688 597.9531,159.7188 597.9531,159.4375 C597.9531,159.1563 598.1094,158.875 598.3594,158.7031 C598.5156,158.6094 598.6406,158.5938 599.0938,158.5938 L602.7656,158.5938 L606.1563,166.7969 C606.625,166.7969 606.7813,166.8281 606.9531,166.9688 C607.1719,167.125 607.3125,167.375 607.3125,167.6563 C607.3125,167.9375 607.1563,168.2344 606.9063,168.375 C606.7656,168.4688 606.5469,168.5 606.1875,168.5 L603.8281,168.5 C603.4063,168.5 603.2031,168.4531 603.0625,168.3281 C602.8438,168.1719 602.7031,167.9219 602.7031,167.6563 C602.7031,167.3594 602.8594,167.0781 603.1094,166.9219 C603.2656,166.8125 603.375,166.7969 603.8281,166.7969 L604.2188,166.7969 Z M603.125,164.1094 L601.7969,160.8438 L600.4531,164.1094 Z "/><text fill="#000000" font-family="sans-serif" font-size="12" font-style="italic" lengthAdjust="spacingAndGlyphs" textLength="61" x="622.75" y="168.1543">Controller</text><line style="stroke: #A80036; stroke-width: 1.5;" x1="556.5" x2="717.5" y1="180" y2="180"/><line style="stroke: #A80036; stroke-width: 1.5;" x1="556.5" x2="717.5" y1="188" y2="188"/><ellipse cx="566.5" cy="199" fill="#84BE84" rx="3" ry="3" style="stroke: #038048; stroke-width: 1.0;"/><text fill="#000000" font-family="sans-serif" font-size="11" lengthAdjust="spacingAndGlyphs" textLength="137" x="575.5" y="202.2104">accept(ControllerVisitor)</text><!--MD5=[202eb055b61e3635d6abeb6d1809ebdd]
class ControllerVisitor--><rect fill="#FEFECE" filter="url(#f1q1ynhpn3p2ew)" height="86.4141" id="ControllerVisitor" style="stroke: #A80036; stroke-width: 1.5;" width="159" x="815.5" y="288"/><ellipse cx="843.1" cy="304" fill="#A9DCDF" rx="11" ry="11" style="stroke: #A80036; stroke-width: 1.0;"/><path d="M844.6781,305.8125 L840.6313,305.8125 L840.2406,306.7969 L840.6313,306.7969 C841.0844,306.7969 841.225,306.8281 841.3969,306.9531 C841.6156,307.125 841.7406,307.375 841.7406,307.6563 C841.7406,307.9375 841.6,308.2344 841.3344,308.375 C841.2094,308.4688 840.9906,308.5 840.6313,308.5 L838.3656,308.5 C837.6156,308.5 837.2406,308.2188 837.2406,307.6563 C837.2406,307.3594 837.3969,307.0781 837.6469,306.9219 C837.8031,306.8125 837.9594,306.7969 838.3813,306.7969 L841.0219,300.2813 L839.9438,300.2813 C839.5063,300.2813 839.3344,300.25 839.1625,300.1406 C838.9438,299.9688 838.8031,299.7188 838.8031,299.4375 C838.8031,299.1563 838.9594,298.875 839.2094,298.7031 C839.3656,298.6094 839.4906,298.5938 839.9438,298.5938 L843.6156,298.5938 L847.0063,306.7969 C847.475,306.7969 847.6313,306.8281 847.8031,306.9688 C848.0219,307.125 848.1625,307.375 848.1625,307.6563 C848.1625,307.9375 848.0063,308.2344 847.7563,308.375 C847.6156,308.4688 847.3969,308.5 847.0375,308.5 L844.6781,308.5 C844.2563,308.5 844.0531,308.4531 843.9125,308.3281 C843.6938,308.1719 843.5531,307.9219 843.5531,307.6563 C843.5531,307.3594 843.7094,307.0781 843.9594,306.9219 C844.1156,306.8125 844.225,306.7969 844.6781,306.7969 L845.0688,306.7969 Z M843.975,304.1094 L842.6469,300.8438 L841.3031,304.1094 Z "/><text fill="#000000" font-family="sans-serif" font-size="12" font-style="italic" lengthAdjust="spacingAndGlyphs" textLength="99" x="859.9" y="308.1543">ControllerVisitor</text><line style="stroke: #A80036; stroke-width: 1.5;" x1="816.5" x2="973.5" y1="320" y2="320"/><line style="stroke: #A80036; stroke-width: 1.5;" x1="816.5" x2="973.5" y1="328" y2="328"/><ellipse cx="826.5" cy="339" fill="#84BE84" rx="3" ry="3" style="stroke: #038048; stroke-width: 1.0;"/><text fill="#000000" font-family="sans-serif" font-size="11" lengthAdjust="spacingAndGlyphs" textLength="115" x="835.5" y="342.2104">visit(StartController)</text><ellipse cx="826.5" cy="351.8047" fill="#84BE84" rx="3" ry="3" style="stroke: #038048; stroke-width: 1.0;"/><text fill="#000000" font-family="sans-serif" font-size="11" lengthAdjust="spacingAndGlyphs" textLength="116" x="835.5" y="355.0151">visit(MoveController)</text><ellipse cx="826.5" cy="364.6094" fill="#84BE84" rx="3" ry="3" style="stroke: #038048; stroke-width: 1.0;"/><text fill="#000000" font-family="sans-serif" font-size="11" lengthAdjust="spacingAndGlyphs" textLength="133" x="835.5" y="367.8198">visit(ResumeController)</text><!--MD5=[b33739c3e536261369b4ffef6d5359a5]
class AcceptController--><rect fill="#FEFECE" filter="url(#f1q1ynhpn3p2ew)" height="48" id="AcceptController" style="stroke: #A80036; stroke-width: 1.5;" width="136" x="594" y="307"/><ellipse cx="609" cy="323" fill="#ADD1B2" rx="11" ry="11" style="stroke: #A80036; stroke-width: 1.0;"/><path d="M611.3438,318.6719 L611.5156,318.75 C611.7344,318.4375 611.9375,318.3438 612.2344,318.3438 C612.5313,318.3438 612.8125,318.4844 612.9688,318.75 C613.0625,318.9063 613.0781,319.0313 613.0781,319.4688 L613.0781,320.8906 C613.0781,321.3125 613.0469,321.5 612.9375,321.6563 C612.7656,321.875 612.5,322.0156 612.2344,322.0156 C612.0156,322.0156 611.7813,321.9063 611.6406,321.7656 C611.5,321.6406 611.4688,321.5156 611.4063,321.1094 C611.3125,320.7031 611.1406,320.4844 610.6563,320.2031 C610.1875,319.9531 609.5781,319.7969 609,319.7969 C607.2656,319.7969 606.0156,321.1094 606.0156,322.8906 L606.0156,323.9844 C606.0156,325.6875 607.3125,326.7813 609.3594,326.7813 C610.125,326.7813 610.8125,326.6563 611.2344,326.3906 C611.4219,326.2969 611.4219,326.2969 611.875,325.8125 C612.0625,325.625 612.2656,325.5469 612.4844,325.5469 C612.9531,325.5469 613.3438,325.9375 613.3438,326.3906 C613.3438,326.7813 613.0156,327.2344 612.4375,327.6406 C611.6875,328.1875 610.5313,328.4844 609.3125,328.4844 C606.4219,328.4844 604.3125,326.5938 604.3125,324.0156 L604.3125,322.8906 C604.3125,320.1719 606.3125,318.0938 608.9375,318.0938 C609.8125,318.0938 610.4063,318.2344 611.3438,318.6719 Z "/><text fill="#000000" font-family="sans-serif" font-size="12" lengthAdjust="spacingAndGlyphs" textLength="104" x="623" y="327.1543">AcceptController</text><line style="stroke: #A80036; stroke-width: 1.5;" x1="595" x2="729" y1="339" y2="339"/><line style="stroke: #A80036; stroke-width: 1.5;" x1="595" x2="729" y1="347" y2="347"/><!--MD5=[4a3d141f9685726a02b570c2e6e45719]
class MoveController--><rect fill="#FEFECE" filter="url(#f1q1ynhpn3p2ew)" height="60.8047" id="MoveController" style="stroke: #A80036; stroke-width: 1.5;" width="163" x="445.5" y="555"/><ellipse cx="477.6" cy="571" fill="#ADD1B2" rx="11" ry="11" style="stroke: #A80036; stroke-width: 1.0;"/><path d="M479.9438,566.6719 L480.1156,566.75 C480.3344,566.4375 480.5375,566.3438 480.8344,566.3438 C481.1313,566.3438 481.4125,566.4844 481.5688,566.75 C481.6625,566.9063 481.6781,567.0313 481.6781,567.4688 L481.6781,568.8906 C481.6781,569.3125 481.6469,569.5 481.5375,569.6563 C481.3656,569.875 481.1,570.0156 480.8344,570.0156 C480.6156,570.0156 480.3813,569.9063 480.2406,569.7656 C480.1,569.6406 480.0688,569.5156 480.0063,569.1094 C479.9125,568.7031 479.7406,568.4844 479.2563,568.2031 C478.7875,567.9531 478.1781,567.7969 477.6,567.7969 C475.8656,567.7969 474.6156,569.1094 474.6156,570.8906 L474.6156,571.9844 C474.6156,573.6875 475.9125,574.7813 477.9594,574.7813 C478.725,574.7813 479.4125,574.6563 479.8344,574.3906 C480.0219,574.2969 480.0219,574.2969 480.475,573.8125 C480.6625,573.625 480.8656,573.5469 481.0844,573.5469 C481.5531,573.5469 481.9438,573.9375 481.9438,574.3906 C481.9438,574.7813 481.6156,575.2344 481.0375,575.6406 C480.2875,576.1875 479.1313,576.4844 477.9125,576.4844 C475.0219,576.4844 472.9125,574.5938 472.9125,572.0156 L472.9125,570.8906 C472.9125,568.1719 474.9125,566.0938 477.5375,566.0938 C478.4125,566.0938 479.0063,566.2344 479.9438,566.6719 Z "/><text fill="#000000" font-family="sans-serif" font-size="12" lengthAdjust="spacingAndGlyphs" textLength="93" x="495.4" y="575.1543">MoveController</text><line style="stroke: #A80036; stroke-width: 1.5;" x1="446.5" x2="607.5" y1="587" y2="587"/><line style="stroke: #A80036; stroke-width: 1.5;" x1="446.5" x2="607.5" y1="595" y2="595"/><ellipse cx="456.5" cy="606" fill="#84BE84" rx="3" ry="3" style="stroke: #038048; stroke-width: 1.0;"/><text fill="#000000" font-family="sans-serif" font-size="11" lengthAdjust="spacingAndGlyphs" textLength="137" x="465.5" y="609.2104">accept(ControllerVisitor)</text><!--MD5=[47c371471411cfedeee61b1a5bdaee47]
class StartController--><rect fill="#FEFECE" filter="url(#f1q1ynhpn3p2ew)" height="60.8047" id="StartController" style="stroke: #A80036; stroke-width: 1.5;" width="163" x="838.5" y="434"/><ellipse cx="871.05" cy="450" fill="#ADD1B2" rx="11" ry="11" style="stroke: #A80036; stroke-width: 1.0;"/><path d="M873.3938,445.6719 L873.5656,445.75 C873.7844,445.4375 873.9875,445.3438 874.2844,445.3438 C874.5813,445.3438 874.8625,445.4844 875.0188,445.75 C875.1125,445.9063 875.1281,446.0313 875.1281,446.4688 L875.1281,447.8906 C875.1281,448.3125 875.0969,448.5 874.9875,448.6563 C874.8156,448.875 874.55,449.0156 874.2844,449.0156 C874.0656,449.0156 873.8313,448.9063 873.6906,448.7656 C873.55,448.6406 873.5188,448.5156 873.4563,448.1094 C873.3625,447.7031 873.1906,447.4844 872.7063,447.2031 C872.2375,446.9531 871.6281,446.7969 871.05,446.7969 C869.3156,446.7969 868.0656,448.1094 868.0656,449.8906 L868.0656,450.9844 C868.0656,452.6875 869.3625,453.7813 871.4094,453.7813 C872.175,453.7813 872.8625,453.6563 873.2844,453.3906 C873.4719,453.2969 873.4719,453.2969 873.925,452.8125 C874.1125,452.625 874.3156,452.5469 874.5344,452.5469 C875.0031,452.5469 875.3938,452.9375 875.3938,453.3906 C875.3938,453.7813 875.0656,454.2344 874.4875,454.6406 C873.7375,455.1875 872.5813,455.4844 871.3625,455.4844 C868.4719,455.4844 866.3625,453.5938 866.3625,451.0156 L866.3625,449.8906 C866.3625,447.1719 868.3625,445.0938 870.9875,445.0938 C871.8625,445.0938 872.4563,445.2344 873.3938,445.6719 Z "/><text fill="#000000" font-family="sans-serif" font-size="12" lengthAdjust="spacingAndGlyphs" textLength="92" x="888.95" y="454.1543">StartController</text><line style="stroke: #A80036; stroke-width: 1.5;" x1="839.5" x2="1000.5" y1="466" y2="466"/><line style="stroke: #A80036; stroke-width: 1.5;" x1="839.5" x2="1000.5" y1="474" y2="474"/><ellipse cx="849.5" cy="485" fill="#84BE84" rx="3" ry="3" style="stroke: #038048; stroke-width: 1.0;"/><text fill="#000000" font-family="sans-serif" font-size="11" lengthAdjust="spacingAndGlyphs" textLength="137" x="858.5" y="488.2104">accept(ControllerVisitor)</text><!--MD5=[1a47bbf44ccee225df9b18c5b6629853]
class ResumeController--><rect fill="#FEFECE" filter="url(#f1q1ynhpn3p2ew)" height="60.8047" id="ResumeController" style="stroke: #A80036; stroke-width: 1.5;" width="163" x="486.5" y="434"/><ellipse cx="510.5" cy="450" fill="#ADD1B2" rx="11" ry="11" style="stroke: #A80036; stroke-width: 1.0;"/><path d="M512.8438,445.6719 L513.0156,445.75 C513.2344,445.4375 513.4375,445.3438 513.7344,445.3438 C514.0313,445.3438 514.3125,445.4844 514.4688,445.75 C514.5625,445.9063 514.5781,446.0313 514.5781,446.4688 L514.5781,447.8906 C514.5781,448.3125 514.5469,448.5 514.4375,448.6563 C514.2656,448.875 514,449.0156 513.7344,449.0156 C513.5156,449.0156 513.2813,448.9063 513.1406,448.7656 C513,448.6406 512.9688,448.5156 512.9063,448.1094 C512.8125,447.7031 512.6406,447.4844 512.1563,447.2031 C511.6875,446.9531 511.0781,446.7969 510.5,446.7969 C508.7656,446.7969 507.5156,448.1094 507.5156,449.8906 L507.5156,450.9844 C507.5156,452.6875 508.8125,453.7813 510.8594,453.7813 C511.625,453.7813 512.3125,453.6563 512.7344,453.3906 C512.9219,453.2969 512.9219,453.2969 513.375,452.8125 C513.5625,452.625 513.7656,452.5469 513.9844,452.5469 C514.4531,452.5469 514.8438,452.9375 514.8438,453.3906 C514.8438,453.7813 514.5156,454.2344 513.9375,454.6406 C513.1875,455.1875 512.0313,455.4844 510.8125,455.4844 C507.9219,455.4844 505.8125,453.5938 505.8125,451.0156 L505.8125,449.8906 C505.8125,447.1719 507.8125,445.0938 510.4375,445.0938 C511.3125,445.0938 511.9063,445.2344 512.8438,445.6719 Z "/><text fill="#000000" font-family="sans-serif" font-size="12" lengthAdjust="spacingAndGlyphs" textLength="111" x="526.5" y="454.1543">ResumeController</text><line style="stroke: #A80036; stroke-width: 1.5;" x1="487.5" x2="648.5" y1="466" y2="466"/><line style="stroke: #A80036; stroke-width: 1.5;" x1="487.5" x2="648.5" y1="474" y2="474"/><ellipse cx="497.5" cy="485" fill="#84BE84" rx="3" ry="3" style="stroke: #038048; stroke-width: 1.0;"/><text fill="#000000" font-family="sans-serif" font-size="11" lengthAdjust="spacingAndGlyphs" textLength="137" x="506.5" y="488.2104">accept(ControllerVisitor)</text><!--MD5=[7afa4cdd2ff84f1dcb5e4f643f42ec7a]
class CancelController--><rect fill="#FEFECE" filter="url(#f1q1ynhpn3p2ew)" height="48" id="CancelController" style="stroke: #A80036; stroke-width: 1.5;" width="135" x="659.5" y="561.5"/><ellipse cx="674.5" cy="577.5" fill="#ADD1B2" rx="11" ry="11" style="stroke: #A80036; stroke-width: 1.0;"/><path d="M676.8438,573.1719 L677.0156,573.25 C677.2344,572.9375 677.4375,572.8438 677.7344,572.8438 C678.0313,572.8438 678.3125,572.9844 678.4688,573.25 C678.5625,573.4063 678.5781,573.5313 678.5781,573.9688 L678.5781,575.3906 C678.5781,575.8125 678.5469,576 678.4375,576.1563 C678.2656,576.375 678,576.5156 677.7344,576.5156 C677.5156,576.5156 677.2813,576.4063 677.1406,576.2656 C677,576.1406 676.9688,576.0156 676.9063,575.6094 C676.8125,575.2031 676.6406,574.9844 676.1563,574.7031 C675.6875,574.4531 675.0781,574.2969 674.5,574.2969 C672.7656,574.2969 671.5156,575.6094 671.5156,577.3906 L671.5156,578.4844 C671.5156,580.1875 672.8125,581.2813 674.8594,581.2813 C675.625,581.2813 676.3125,581.1563 676.7344,580.8906 C676.9219,580.7969 676.9219,580.7969 677.375,580.3125 C677.5625,580.125 677.7656,580.0469 677.9844,580.0469 C678.4531,580.0469 678.8438,580.4375 678.8438,580.8906 C678.8438,581.2813 678.5156,581.7344 677.9375,582.1406 C677.1875,582.6875 676.0313,582.9844 674.8125,582.9844 C671.9219,582.9844 669.8125,581.0938 669.8125,578.5156 L669.8125,577.3906 C669.8125,574.6719 671.8125,572.5938 674.4375,572.5938 C675.3125,572.5938 675.9063,572.7344 676.8438,573.1719 Z "/><text fill="#000000" font-family="sans-serif" font-size="12" lengthAdjust="spacingAndGlyphs" textLength="103" x="688.5" y="581.6543">CancelController</text><line style="stroke: #A80036; stroke-width: 1.5;" x1="660.5" x2="793.5" y1="593.5" y2="593.5"/><line style="stroke: #A80036; stroke-width: 1.5;" x1="660.5" x2="793.5" y1="601.5" y2="601.5"/><!--MD5=[cc8600b868f8dfab2c8d497bce62f90a]
class PlayController--><rect fill="#FEFECE" filter="url(#f1q1ynhpn3p2ew)" height="48" id="PlayController" style="stroke: #A80036; stroke-width: 1.5;" width="118" x="685" y="440.5"/><ellipse cx="700" cy="456.5" fill="#ADD1B2" rx="11" ry="11" style="stroke: #A80036; stroke-width: 1.0;"/><path d="M702.3438,452.1719 L702.5156,452.25 C702.7344,451.9375 702.9375,451.8438 703.2344,451.8438 C703.5313,451.8438 703.8125,451.9844 703.9688,452.25 C704.0625,452.4063 704.0781,452.5313 704.0781,452.9688 L704.0781,454.3906 C704.0781,454.8125 704.0469,455 703.9375,455.1563 C703.7656,455.375 703.5,455.5156 703.2344,455.5156 C703.0156,455.5156 702.7813,455.4063 702.6406,455.2656 C702.5,455.1406 702.4688,455.0156 702.4063,454.6094 C702.3125,454.2031 702.1406,453.9844 701.6563,453.7031 C701.1875,453.4531 700.5781,453.2969 700,453.2969 C698.2656,453.2969 697.0156,454.6094 697.0156,456.3906 L697.0156,457.4844 C697.0156,459.1875 698.3125,460.2813 700.3594,460.2813 C701.125,460.2813 701.8125,460.1563 702.2344,459.8906 C702.4219,459.7969 702.4219,459.7969 702.875,459.3125 C703.0625,459.125 703.2656,459.0469 703.4844,459.0469 C703.9531,459.0469 704.3438,459.4375 704.3438,459.8906 C704.3438,460.2813 704.0156,460.7344 703.4375,461.1406 C702.6875,461.6875 701.5313,461.9844 700.3125,461.9844 C697.4219,461.9844 695.3125,460.0938 695.3125,457.5156 L695.3125,456.3906 C695.3125,453.6719 697.3125,451.5938 699.9375,451.5938 C700.8125,451.5938 701.4063,451.7344 702.3438,452.1719 Z "/><text fill="#000000" font-family="sans-serif" font-size="12" lengthAdjust="spacingAndGlyphs" textLength="86" x="714" y="460.6543">PlayController</text><line style="stroke: #A80036; stroke-width: 1.5;" x1="686" x2="802" y1="472.5" y2="472.5"/><line style="stroke: #A80036; stroke-width: 1.5;" x1="686" x2="802" y1="480.5" y2="480.5"/><!--MD5=[c045e12321b83266d36d22b9096c24ea]
class View--><rect fill="#FEFECE" filter="url(#f1q1ynhpn3p2ew)" height="60.8047" id="View" style="stroke: #A80036; stroke-width: 1.5;" width="133" x="1058.5" y="148"/><ellipse cx="1106.25" cy="164" fill="#A9DCDF" rx="11" ry="11" style="stroke: #A80036; stroke-width: 1.0;"/><path d="M1107.8281,165.8125 L1103.7813,165.8125 L1103.3906,166.7969 L1103.7813,166.7969 C1104.2344,166.7969 1104.375,166.8281 1104.5469,166.9531 C1104.7656,167.125 1104.8906,167.375 1104.8906,167.6563 C1104.8906,167.9375 1104.75,168.2344 1104.4844,168.375 C1104.3594,168.4688 1104.1406,168.5 1103.7813,168.5 L1101.5156,168.5 C1100.7656,168.5 1100.3906,168.2188 1100.3906,167.6563 C1100.3906,167.3594 1100.5469,167.0781 1100.7969,166.9219 C1100.9531,166.8125 1101.1094,166.7969 1101.5313,166.7969 L1104.1719,160.2813 L1103.0938,160.2813 C1102.6563,160.2813 1102.4844,160.25 1102.3125,160.1406 C1102.0938,159.9688 1101.9531,159.7188 1101.9531,159.4375 C1101.9531,159.1563 1102.1094,158.875 1102.3594,158.7031 C1102.5156,158.6094 1102.6406,158.5938 1103.0938,158.5938 L1106.7656,158.5938 L1110.1563,166.7969 C1110.625,166.7969 1110.7813,166.8281 1110.9531,166.9688 C1111.1719,167.125 1111.3125,167.375 1111.3125,167.6563 C1111.3125,167.9375 1111.1563,168.2344 1110.9063,168.375 C1110.7656,168.4688 1110.5469,168.5 1110.1875,168.5 L1107.8281,168.5 C1107.4063,168.5 1107.2031,168.4531 1107.0625,168.3281 C1106.8438,168.1719 1106.7031,167.9219 1106.7031,167.6563 C1106.7031,167.3594 1106.8594,167.0781 1107.1094,166.9219 C1107.2656,166.8125 1107.375,166.7969 1107.8281,166.7969 L1108.2188,166.7969 Z M1107.125,164.1094 L1105.7969,160.8438 L1104.4531,164.1094 Z "/><text fill="#000000" font-family="sans-serif" font-size="12" font-style="italic" lengthAdjust="spacingAndGlyphs" textLength="29" x="1126.75" y="168.1543">View</text><line style="stroke: #A80036; stroke-width: 1.5;" x1="1059.5" x2="1190.5" y1="180" y2="180"/><line style="stroke: #A80036; stroke-width: 1.5;" x1="1059.5" x2="1190.5" y1="188" y2="188"/><ellipse cx="1069.5" cy="199" fill="#84BE84" rx="3" ry="3" style="stroke: #038048; stroke-width: 1.0;"/><text fill="#000000" font-family="sans-serif" font-size="11" lengthAdjust="spacingAndGlyphs" textLength="107" x="1078.5" y="202.2104">interact(Controller)</text><!--MD5=[bdd4672b4bae795639395c14a0d6d497]
class DashboardView--><rect fill="#FEFECE" filter="url(#f1q1ynhpn3p2ew)" height="48" id="DashboardView" style="stroke: #A80036; stroke-width: 1.5;" width="129" x="1233.5" y="440.5"/><ellipse cx="1248.5" cy="456.5" fill="#ADD1B2" rx="11" ry="11" style="stroke: #A80036; stroke-width: 1.0;"/><path d="M1250.8438,452.1719 L1251.0156,452.25 C1251.2344,451.9375 1251.4375,451.8438 1251.7344,451.8438 C1252.0313,451.8438 1252.3125,451.9844 1252.4688,452.25 C1252.5625,452.4063 1252.5781,452.5313 1252.5781,452.9688 L1252.5781,454.3906 C1252.5781,454.8125 1252.5469,455 1252.4375,455.1563 C1252.2656,455.375 1252,455.5156 1251.7344,455.5156 C1251.5156,455.5156 1251.2813,455.4063 1251.1406,455.2656 C1251,455.1406 1250.9688,455.0156 1250.9063,454.6094 C1250.8125,454.2031 1250.6406,453.9844 1250.1563,453.7031 C1249.6875,453.4531 1249.0781,453.2969 1248.5,453.2969 C1246.7656,453.2969 1245.5156,454.6094 1245.5156,456.3906 L1245.5156,457.4844 C1245.5156,459.1875 1246.8125,460.2813 1248.8594,460.2813 C1249.625,460.2813 1250.3125,460.1563 1250.7344,459.8906 C1250.9219,459.7969 1250.9219,459.7969 1251.375,459.3125 C1251.5625,459.125 1251.7656,459.0469 1251.9844,459.0469 C1252.4531,459.0469 1252.8438,459.4375 1252.8438,459.8906 C1252.8438,460.2813 1252.5156,460.7344 1251.9375,461.1406 C1251.1875,461.6875 1250.0313,461.9844 1248.8125,461.9844 C1245.9219,461.9844 1243.8125,460.0938 1243.8125,457.5156 L1243.8125,456.3906 C1243.8125,453.6719 1245.8125,451.5938 1248.4375,451.5938 C1249.3125,451.5938 1249.9063,451.7344 1250.8438,452.1719 Z "/><text fill="#000000" font-family="sans-serif" font-size="12" lengthAdjust="spacingAndGlyphs" textLength="97" x="1262.5" y="460.6543">DashboardView</text><line style="stroke: #A80036; stroke-width: 1.5;" x1="1234.5" x2="1361.5" y1="472.5" y2="472.5"/><line style="stroke: #A80036; stroke-width: 1.5;" x1="1234.5" x2="1361.5" y1="480.5" y2="480.5"/><!--MD5=[19088a99a8c1f36e582d33ac2f8fc6dd]
class ResumeView--><rect fill="#FEFECE" filter="url(#f1q1ynhpn3p2ew)" height="48" id="ResumeView" style="stroke: #A80036; stroke-width: 1.5;" width="110" x="1058" y="307"/><ellipse cx="1073" cy="323" fill="#ADD1B2" rx="11" ry="11" style="stroke: #A80036; stroke-width: 1.0;"/><path d="M1075.3438,318.6719 L1075.5156,318.75 C1075.7344,318.4375 1075.9375,318.3438 1076.2344,318.3438 C1076.5313,318.3438 1076.8125,318.4844 1076.9688,318.75 C1077.0625,318.9063 1077.0781,319.0313 1077.0781,319.4688 L1077.0781,320.8906 C1077.0781,321.3125 1077.0469,321.5 1076.9375,321.6563 C1076.7656,321.875 1076.5,322.0156 1076.2344,322.0156 C1076.0156,322.0156 1075.7813,321.9063 1075.6406,321.7656 C1075.5,321.6406 1075.4688,321.5156 1075.4063,321.1094 C1075.3125,320.7031 1075.1406,320.4844 1074.6563,320.2031 C1074.1875,319.9531 1073.5781,319.7969 1073,319.7969 C1071.2656,319.7969 1070.0156,321.1094 1070.0156,322.8906 L1070.0156,323.9844 C1070.0156,325.6875 1071.3125,326.7813 1073.3594,326.7813 C1074.125,326.7813 1074.8125,326.6563 1075.2344,326.3906 C1075.4219,326.2969 1075.4219,326.2969 1075.875,325.8125 C1076.0625,325.625 1076.2656,325.5469 1076.4844,325.5469 C1076.9531,325.5469 1077.3438,325.9375 1077.3438,326.3906 C1077.3438,326.7813 1077.0156,327.2344 1076.4375,327.6406 C1075.6875,328.1875 1074.5313,328.4844 1073.3125,328.4844 C1070.4219,328.4844 1068.3125,326.5938 1068.3125,324.0156 L1068.3125,322.8906 C1068.3125,320.1719 1070.3125,318.0938 1072.9375,318.0938 C1073.8125,318.0938 1074.4063,318.2344 1075.3438,318.6719 Z "/><text fill="#000000" font-family="sans-serif" font-size="12" lengthAdjust="spacingAndGlyphs" textLength="78" x="1087" y="327.1543">ResumeView</text><line style="stroke: #A80036; stroke-width: 1.5;" x1="1059" x2="1167" y1="339" y2="339"/><line style="stroke: #A80036; stroke-width: 1.5;" x1="1059" x2="1167" y1="347" y2="347"/><!--MD5=[443c52daef265809fdf31be84fc8ae4a]
class StartView--><rect fill="#FEFECE" filter="url(#f1q1ynhpn3p2ew)" height="48" id="StartView" style="stroke: #A80036; stroke-width: 1.5;" width="91" x="1323.5" y="307"/><ellipse cx="1338.5" cy="323" fill="#ADD1B2" rx="11" ry="11" style="stroke: #A80036; stroke-width: 1.0;"/><path d="M1340.8438,318.6719 L1341.0156,318.75 C1341.2344,318.4375 1341.4375,318.3438 1341.7344,318.3438 C1342.0313,318.3438 1342.3125,318.4844 1342.4688,318.75 C1342.5625,318.9063 1342.5781,319.0313 1342.5781,319.4688 L1342.5781,320.8906 C1342.5781,321.3125 1342.5469,321.5 1342.4375,321.6563 C1342.2656,321.875 1342,322.0156 1341.7344,322.0156 C1341.5156,322.0156 1341.2813,321.9063 1341.1406,321.7656 C1341,321.6406 1340.9688,321.5156 1340.9063,321.1094 C1340.8125,320.7031 1340.6406,320.4844 1340.1563,320.2031 C1339.6875,319.9531 1339.0781,319.7969 1338.5,319.7969 C1336.7656,319.7969 1335.5156,321.1094 1335.5156,322.8906 L1335.5156,323.9844 C1335.5156,325.6875 1336.8125,326.7813 1338.8594,326.7813 C1339.625,326.7813 1340.3125,326.6563 1340.7344,326.3906 C1340.9219,326.2969 1340.9219,326.2969 1341.375,325.8125 C1341.5625,325.625 1341.7656,325.5469 1341.9844,325.5469 C1342.4531,325.5469 1342.8438,325.9375 1342.8438,326.3906 C1342.8438,326.7813 1342.5156,327.2344 1341.9375,327.6406 C1341.1875,328.1875 1340.0313,328.4844 1338.8125,328.4844 C1335.9219,328.4844 1333.8125,326.5938 1333.8125,324.0156 L1333.8125,322.8906 C1333.8125,320.1719 1335.8125,318.0938 1338.4375,318.0938 C1339.3125,318.0938 1339.9063,318.2344 1340.8438,318.6719 Z "/><text fill="#000000" font-family="sans-serif" font-size="12" lengthAdjust="spacingAndGlyphs" textLength="59" x="1352.5" y="327.1543">StartView</text><line style="stroke: #A80036; stroke-width: 1.5;" x1="1324.5" x2="1413.5" y1="339" y2="339"/><line style="stroke: #A80036; stroke-width: 1.5;" x1="1324.5" x2="1413.5" y1="347" y2="347"/><!--MD5=[7d098cfea779bb374973991beab6ed3b]
class PlayView--><rect fill="#FEFECE" filter="url(#f1q1ynhpn3p2ew)" height="48" id="PlayView" style="stroke: #A80036; stroke-width: 1.5;" width="85" x="1203.5" y="307"/><ellipse cx="1218.5" cy="323" fill="#ADD1B2" rx="11" ry="11" style="stroke: #A80036; stroke-width: 1.0;"/><path d="M1220.8438,318.6719 L1221.0156,318.75 C1221.2344,318.4375 1221.4375,318.3438 1221.7344,318.3438 C1222.0313,318.3438 1222.3125,318.4844 1222.4688,318.75 C1222.5625,318.9063 1222.5781,319.0313 1222.5781,319.4688 L1222.5781,320.8906 C1222.5781,321.3125 1222.5469,321.5 1222.4375,321.6563 C1222.2656,321.875 1222,322.0156 1221.7344,322.0156 C1221.5156,322.0156 1221.2813,321.9063 1221.1406,321.7656 C1221,321.6406 1220.9688,321.5156 1220.9063,321.1094 C1220.8125,320.7031 1220.6406,320.4844 1220.1563,320.2031 C1219.6875,319.9531 1219.0781,319.7969 1218.5,319.7969 C1216.7656,319.7969 1215.5156,321.1094 1215.5156,322.8906 L1215.5156,323.9844 C1215.5156,325.6875 1216.8125,326.7813 1218.8594,326.7813 C1219.625,326.7813 1220.3125,326.6563 1220.7344,326.3906 C1220.9219,326.2969 1220.9219,326.2969 1221.375,325.8125 C1221.5625,325.625 1221.7656,325.5469 1221.9844,325.5469 C1222.4531,325.5469 1222.8438,325.9375 1222.8438,326.3906 C1222.8438,326.7813 1222.5156,327.2344 1221.9375,327.6406 C1221.1875,328.1875 1220.0313,328.4844 1218.8125,328.4844 C1215.9219,328.4844 1213.8125,326.5938 1213.8125,324.0156 L1213.8125,322.8906 C1213.8125,320.1719 1215.8125,318.0938 1218.4375,318.0938 C1219.3125,318.0938 1219.9063,318.2344 1220.8438,318.6719 Z "/><text fill="#000000" font-family="sans-serif" font-size="12" lengthAdjust="spacingAndGlyphs" textLength="53" x="1232.5" y="327.1543">PlayView</text><line style="stroke: #A80036; stroke-width: 1.5;" x1="1204.5" x2="1287.5" y1="339" y2="339"/><line style="stroke: #A80036; stroke-width: 1.5;" x1="1204.5" x2="1287.5" y1="347" y2="347"/><!--MD5=[eb428b1f4a6ffc2a6f427996736c8f30]
class SquareView--><rect fill="#FEFECE" filter="url(#f1q1ynhpn3p2ew)" height="48" id="SquareView" style="stroke: #A80036; stroke-width: 1.5;" width="105" x="1245.5" y="561.5"/><ellipse cx="1260.5" cy="577.5" fill="#ADD1B2" rx="11" ry="11" style="stroke: #A80036; stroke-width: 1.0;"/><path d="M1262.8438,573.1719 L1263.0156,573.25 C1263.2344,572.9375 1263.4375,572.8438 1263.7344,572.8438 C1264.0313,572.8438 1264.3125,572.9844 1264.4688,573.25 C1264.5625,573.4063 1264.5781,573.5313 1264.5781,573.9688 L1264.5781,575.3906 C1264.5781,575.8125 1264.5469,576 1264.4375,576.1563 C1264.2656,576.375 1264,576.5156 1263.7344,576.5156 C1263.5156,576.5156 1263.2813,576.4063 1263.1406,576.2656 C1263,576.1406 1262.9688,576.0156 1262.9063,575.6094 C1262.8125,575.2031 1262.6406,574.9844 1262.1563,574.7031 C1261.6875,574.4531 1261.0781,574.2969 1260.5,574.2969 C1258.7656,574.2969 1257.5156,575.6094 1257.5156,577.3906 L1257.5156,578.4844 C1257.5156,580.1875 1258.8125,581.2813 1260.8594,581.2813 C1261.625,581.2813 1262.3125,581.1563 1262.7344,580.8906 C1262.9219,580.7969 1262.9219,580.7969 1263.375,580.3125 C1263.5625,580.125 1263.7656,580.0469 1263.9844,580.0469 C1264.4531,580.0469 1264.8438,580.4375 1264.8438,580.8906 C1264.8438,581.2813 1264.5156,581.7344 1263.9375,582.1406 C1263.1875,582.6875 1262.0313,582.9844 1260.8125,582.9844 C1257.9219,582.9844 1255.8125,581.0938 1255.8125,578.5156 L1255.8125,577.3906 C1255.8125,574.6719 1257.8125,572.5938 1260.4375,572.5938 C1261.3125,572.5938 1261.9063,572.7344 1262.8438,573.1719 Z "/><text fill="#000000" font-family="sans-serif" font-size="12" lengthAdjust="spacingAndGlyphs" textLength="73" x="1274.5" y="581.6543">SquareView</text><line style="stroke: #A80036; stroke-width: 1.5;" x1="1246.5" x2="1349.5" y1="593.5" y2="593.5"/><line style="stroke: #A80036; stroke-width: 1.5;" x1="1246.5" x2="1349.5" y1="601.5" y2="601.5"/><!--MD5=[d506edff6720ca4585c5d273d13f8178]
class TokenView--><rect fill="#FEFECE" filter="url(#f1q1ynhpn3p2ew)" height="48" id="TokenView" style="stroke: #A80036; stroke-width: 1.5;" width="98" x="1249" y="689"/><ellipse cx="1264" cy="705" fill="#ADD1B2" rx="11" ry="11" style="stroke: #A80036; stroke-width: 1.0;"/><path d="M1266.3438,700.6719 L1266.5156,700.75 C1266.7344,700.4375 1266.9375,700.3438 1267.2344,700.3438 C1267.5313,700.3438 1267.8125,700.4844 1267.9688,700.75 C1268.0625,700.9063 1268.0781,701.0313 1268.0781,701.4688 L1268.0781,702.8906 C1268.0781,703.3125 1268.0469,703.5 1267.9375,703.6563 C1267.7656,703.875 1267.5,704.0156 1267.2344,704.0156 C1267.0156,704.0156 1266.7813,703.9063 1266.6406,703.7656 C1266.5,703.6406 1266.4688,703.5156 1266.4063,703.1094 C1266.3125,702.7031 1266.1406,702.4844 1265.6563,702.2031 C1265.1875,701.9531 1264.5781,701.7969 1264,701.7969 C1262.2656,701.7969 1261.0156,703.1094 1261.0156,704.8906 L1261.0156,705.9844 C1261.0156,707.6875 1262.3125,708.7813 1264.3594,708.7813 C1265.125,708.7813 1265.8125,708.6563 1266.2344,708.3906 C1266.4219,708.2969 1266.4219,708.2969 1266.875,707.8125 C1267.0625,707.625 1267.2656,707.5469 1267.4844,707.5469 C1267.9531,707.5469 1268.3438,707.9375 1268.3438,708.3906 C1268.3438,708.7813 1268.0156,709.2344 1267.4375,709.6406 C1266.6875,710.1875 1265.5313,710.4844 1264.3125,710.4844 C1261.4219,710.4844 1259.3125,708.5938 1259.3125,706.0156 L1259.3125,704.8906 C1259.3125,702.1719 1261.3125,700.0938 1263.9375,700.0938 C1264.8125,700.0938 1265.4063,700.2344 1266.3438,700.6719 Z "/><text fill="#000000" font-family="sans-serif" font-size="12" lengthAdjust="spacingAndGlyphs" textLength="66" x="1278" y="709.1543">TokenView</text><line style="stroke: #A80036; stroke-width: 1.5;" x1="1250" x2="1346" y1="721" y2="721"/><line style="stroke: #A80036; stroke-width: 1.5;" x1="1250" x2="1346" y1="729" y2="729"/><!--MD5=[055ae584e8f48d8fc3c3de49aadf0637]
class Dashboard--><rect fill="#FEFECE" filter="url(#f1q1ynhpn3p2ew)" height="48" id="Dashboard" style="stroke: #A80036; stroke-width: 1.5;" width="101" x="122.5" y="440.5"/><ellipse cx="137.5" cy="456.5" fill="#ADD1B2" rx="11" ry="11" style="stroke: #A80036; stroke-width: 1.0;"/><path d="M139.8438,452.1719 L140.0156,452.25 C140.2344,451.9375 140.4375,451.8438 140.7344,451.8438 C141.0313,451.8438 141.3125,451.9844 141.4688,452.25 C141.5625,452.4063 141.5781,452.5313 141.5781,452.9688 L141.5781,454.3906 C141.5781,454.8125 141.5469,455 141.4375,455.1563 C141.2656,455.375 141,455.5156 140.7344,455.5156 C140.5156,455.5156 140.2813,455.4063 140.1406,455.2656 C140,455.1406 139.9688,455.0156 139.9063,454.6094 C139.8125,454.2031 139.6406,453.9844 139.1563,453.7031 C138.6875,453.4531 138.0781,453.2969 137.5,453.2969 C135.7656,453.2969 134.5156,454.6094 134.5156,456.3906 L134.5156,457.4844 C134.5156,459.1875 135.8125,460.2813 137.8594,460.2813 C138.625,460.2813 139.3125,460.1563 139.7344,459.8906 C139.9219,459.7969 139.9219,459.7969 140.375,459.3125 C140.5625,459.125 140.7656,459.0469 140.9844,459.0469 C141.4531,459.0469 141.8438,459.4375 141.8438,459.8906 C141.8438,460.2813 141.5156,460.7344 140.9375,461.1406 C140.1875,461.6875 139.0313,461.9844 137.8125,461.9844 C134.9219,461.9844 132.8125,460.0938 132.8125,457.5156 L132.8125,456.3906 C132.8125,453.6719 134.8125,451.5938 137.4375,451.5938 C138.3125,451.5938 138.9063,451.7344 139.8438,452.1719 Z "/><text fill="#000000" font-family="sans-serif" font-size="12" lengthAdjust="spacingAndGlyphs" textLength="69" x="151.5" y="460.6543">Dashboard</text><line style="stroke: #A80036; stroke-width: 1.5;" x1="123.5" x2="222.5" y1="472.5" y2="472.5"/><line style="stroke: #A80036; stroke-width: 1.5;" x1="123.5" x2="222.5" y1="480.5" y2="480.5"/><!--MD5=[b8cfd8c4119a3b0a7a46bfc5fc780f85]
class Error--><rect fill="#FEFECE" filter="url(#f1q1ynhpn3p2ew)" height="48" id="Error" style="stroke: #A80036; stroke-width: 1.5;" width="63" x="255.5" y="561.5"/><ellipse cx="270.5" cy="577.5" fill="#ADD1B2" rx="11" ry="11" style="stroke: #A80036; stroke-width: 1.0;"/><path d="M272.8438,573.1719 L273.0156,573.25 C273.2344,572.9375 273.4375,572.8438 273.7344,572.8438 C274.0313,572.8438 274.3125,572.9844 274.4688,573.25 C274.5625,573.4063 274.5781,573.5313 274.5781,573.9688 L274.5781,575.3906 C274.5781,575.8125 274.5469,576 274.4375,576.1563 C274.2656,576.375 274,576.5156 273.7344,576.5156 C273.5156,576.5156 273.2813,576.4063 273.1406,576.2656 C273,576.1406 272.9688,576.0156 272.9063,575.6094 C272.8125,575.2031 272.6406,574.9844 272.1563,574.7031 C271.6875,574.4531 271.0781,574.2969 270.5,574.2969 C268.7656,574.2969 267.5156,575.6094 267.5156,577.3906 L267.5156,578.4844 C267.5156,580.1875 268.8125,581.2813 270.8594,581.2813 C271.625,581.2813 272.3125,581.1563 272.7344,580.8906 C272.9219,580.7969 272.9219,580.7969 273.375,580.3125 C273.5625,580.125 273.7656,580.0469 273.9844,580.0469 C274.4531,580.0469 274.8438,580.4375 274.8438,580.8906 C274.8438,581.2813 274.5156,581.7344 273.9375,582.1406 C273.1875,582.6875 272.0313,582.9844 270.8125,582.9844 C267.9219,582.9844 265.8125,581.0938 265.8125,578.5156 L265.8125,577.3906 C265.8125,574.6719 267.8125,572.5938 270.4375,572.5938 C271.3125,572.5938 271.9063,572.7344 272.8438,573.1719 Z "/><text fill="#000000" font-family="sans-serif" font-size="12" lengthAdjust="spacingAndGlyphs" textLength="31" x="284.5" y="581.6543">Error</text><line style="stroke: #A80036; stroke-width: 1.5;" x1="256.5" x2="317.5" y1="593.5" y2="593.5"/><line style="stroke: #A80036; stroke-width: 1.5;" x1="256.5" x2="317.5" y1="601.5" y2="601.5"/><!--MD5=[60d6b92408f98aed8df94d5c6e04aa63]
class State--><rect fill="#FEFECE" filter="url(#f1q1ynhpn3p2ew)" height="48" id="State" style="stroke: #A80036; stroke-width: 1.5;" width="66" x="187" y="307"/><ellipse cx="202" cy="323" fill="#ADD1B2" rx="11" ry="11" style="stroke: #A80036; stroke-width: 1.0;"/><path d="M204.3438,318.6719 L204.5156,318.75 C204.7344,318.4375 204.9375,318.3438 205.2344,318.3438 C205.5313,318.3438 205.8125,318.4844 205.9688,318.75 C206.0625,318.9063 206.0781,319.0313 206.0781,319.4688 L206.0781,320.8906 C206.0781,321.3125 206.0469,321.5 205.9375,321.6563 C205.7656,321.875 205.5,322.0156 205.2344,322.0156 C205.0156,322.0156 204.7813,321.9063 204.6406,321.7656 C204.5,321.6406 204.4688,321.5156 204.4063,321.1094 C204.3125,320.7031 204.1406,320.4844 203.6563,320.2031 C203.1875,319.9531 202.5781,319.7969 202,319.7969 C200.2656,319.7969 199.0156,321.1094 199.0156,322.8906 L199.0156,323.9844 C199.0156,325.6875 200.3125,326.7813 202.3594,326.7813 C203.125,326.7813 203.8125,326.6563 204.2344,326.3906 C204.4219,326.2969 204.4219,326.2969 204.875,325.8125 C205.0625,325.625 205.2656,325.5469 205.4844,325.5469 C205.9531,325.5469 206.3438,325.9375 206.3438,326.3906 C206.3438,326.7813 206.0156,327.2344 205.4375,327.6406 C204.6875,328.1875 203.5313,328.4844 202.3125,328.4844 C199.4219,328.4844 197.3125,326.5938 197.3125,324.0156 L197.3125,322.8906 C197.3125,320.1719 199.3125,318.0938 201.9375,318.0938 C202.8125,318.0938 203.4063,318.2344 204.3438,318.6719 Z "/><text fill="#000000" font-family="sans-serif" font-size="12" lengthAdjust="spacingAndGlyphs" textLength="34" x="216" y="327.1543">State</text><line style="stroke: #A80036; stroke-width: 1.5;" x1="188" x2="252" y1="339" y2="339"/><line style="stroke: #A80036; stroke-width: 1.5;" x1="188" x2="252" y1="347" y2="347"/><!--MD5=[b6dcce5e5ef3c84b0b048d11301373dd]
class Game--><rect fill="#FEFECE" filter="url(#f1q1ynhpn3p2ew)" height="48" id="Game" style="stroke: #A80036; stroke-width: 1.5;" width="68" x="288" y="307"/><ellipse cx="303" cy="323" fill="#ADD1B2" rx="11" ry="11" style="stroke: #A80036; stroke-width: 1.0;"/><path d="M305.3438,318.6719 L305.5156,318.75 C305.7344,318.4375 305.9375,318.3438 306.2344,318.3438 C306.5313,318.3438 306.8125,318.4844 306.9688,318.75 C307.0625,318.9063 307.0781,319.0313 307.0781,319.4688 L307.0781,320.8906 C307.0781,321.3125 307.0469,321.5 306.9375,321.6563 C306.7656,321.875 306.5,322.0156 306.2344,322.0156 C306.0156,322.0156 305.7813,321.9063 305.6406,321.7656 C305.5,321.6406 305.4688,321.5156 305.4063,321.1094 C305.3125,320.7031 305.1406,320.4844 304.6563,320.2031 C304.1875,319.9531 303.5781,319.7969 303,319.7969 C301.2656,319.7969 300.0156,321.1094 300.0156,322.8906 L300.0156,323.9844 C300.0156,325.6875 301.3125,326.7813 303.3594,326.7813 C304.125,326.7813 304.8125,326.6563 305.2344,326.3906 C305.4219,326.2969 305.4219,326.2969 305.875,325.8125 C306.0625,325.625 306.2656,325.5469 306.4844,325.5469 C306.9531,325.5469 307.3438,325.9375 307.3438,326.3906 C307.3438,326.7813 307.0156,327.2344 306.4375,327.6406 C305.6875,328.1875 304.5313,328.4844 303.3125,328.4844 C300.4219,328.4844 298.3125,326.5938 298.3125,324.0156 L298.3125,322.8906 C298.3125,320.1719 300.3125,318.0938 302.9375,318.0938 C303.8125,318.0938 304.4063,318.2344 305.3438,318.6719 Z "/><text fill="#000000" font-family="sans-serif" font-size="12" lengthAdjust="spacingAndGlyphs" textLength="36" x="317" y="327.1543">Game</text><line style="stroke: #A80036; stroke-width: 1.5;" x1="289" x2="355" y1="339" y2="339"/><line style="stroke: #A80036; stroke-width: 1.5;" x1="289" x2="355" y1="347" y2="347"/><!--MD5=[dd91eae41778c45e12552e5329e240e8]
class Turn--><rect fill="#FEFECE" filter="url(#f1q1ynhpn3p2ew)" height="48" id="Turn" style="stroke: #A80036; stroke-width: 1.5;" width="60" x="296" y="440.5"/><ellipse cx="311" cy="456.5" fill="#ADD1B2" rx="11" ry="11" style="stroke: #A80036; stroke-width: 1.0;"/><path d="M313.3438,452.1719 L313.5156,452.25 C313.7344,451.9375 313.9375,451.8438 314.2344,451.8438 C314.5313,451.8438 314.8125,451.9844 314.9688,452.25 C315.0625,452.4063 315.0781,452.5313 315.0781,452.9688 L315.0781,454.3906 C315.0781,454.8125 315.0469,455 314.9375,455.1563 C314.7656,455.375 314.5,455.5156 314.2344,455.5156 C314.0156,455.5156 313.7813,455.4063 313.6406,455.2656 C313.5,455.1406 313.4688,455.0156 313.4063,454.6094 C313.3125,454.2031 313.1406,453.9844 312.6563,453.7031 C312.1875,453.4531 311.5781,453.2969 311,453.2969 C309.2656,453.2969 308.0156,454.6094 308.0156,456.3906 L308.0156,457.4844 C308.0156,459.1875 309.3125,460.2813 311.3594,460.2813 C312.125,460.2813 312.8125,460.1563 313.2344,459.8906 C313.4219,459.7969 313.4219,459.7969 313.875,459.3125 C314.0625,459.125 314.2656,459.0469 314.4844,459.0469 C314.9531,459.0469 315.3438,459.4375 315.3438,459.8906 C315.3438,460.2813 315.0156,460.7344 314.4375,461.1406 C313.6875,461.6875 312.5313,461.9844 311.3125,461.9844 C308.4219,461.9844 306.3125,460.0938 306.3125,457.5156 L306.3125,456.3906 C306.3125,453.6719 308.3125,451.5938 310.9375,451.5938 C311.8125,451.5938 312.4063,451.7344 313.3438,452.1719 Z "/><text fill="#000000" font-family="sans-serif" font-size="12" lengthAdjust="spacingAndGlyphs" textLength="28" x="325" y="460.6543">Turn</text><line style="stroke: #A80036; stroke-width: 1.5;" x1="297" x2="355" y1="472.5" y2="472.5"/><line style="stroke: #A80036; stroke-width: 1.5;" x1="297" x2="355" y1="480.5" y2="480.5"/><!--MD5=[d8c8cfd5ca149094f5b67f9f607a5ec7]
class Token--><rect fill="#FEFECE" filter="url(#f1q1ynhpn3p2ew)" height="48" id="Token" style="stroke: #A80036; stroke-width: 1.5;" width="70" x="38" y="561.5"/><ellipse cx="53" cy="577.5" fill="#ADD1B2" rx="11" ry="11" style="stroke: #A80036; stroke-width: 1.0;"/><path d="M55.3438,573.1719 L55.5156,573.25 C55.7344,572.9375 55.9375,572.8438 56.2344,572.8438 C56.5313,572.8438 56.8125,572.9844 56.9688,573.25 C57.0625,573.4063 57.0781,573.5313 57.0781,573.9688 L57.0781,575.3906 C57.0781,575.8125 57.0469,576 56.9375,576.1563 C56.7656,576.375 56.5,576.5156 56.2344,576.5156 C56.0156,576.5156 55.7813,576.4063 55.6406,576.2656 C55.5,576.1406 55.4688,576.0156 55.4063,575.6094 C55.3125,575.2031 55.1406,574.9844 54.6563,574.7031 C54.1875,574.4531 53.5781,574.2969 53,574.2969 C51.2656,574.2969 50.0156,575.6094 50.0156,577.3906 L50.0156,578.4844 C50.0156,580.1875 51.3125,581.2813 53.3594,581.2813 C54.125,581.2813 54.8125,581.1563 55.2344,580.8906 C55.4219,580.7969 55.4219,580.7969 55.875,580.3125 C56.0625,580.125 56.2656,580.0469 56.4844,580.0469 C56.9531,580.0469 57.3438,580.4375 57.3438,580.8906 C57.3438,581.2813 57.0156,581.7344 56.4375,582.1406 C55.6875,582.6875 54.5313,582.9844 53.3125,582.9844 C50.4219,582.9844 48.3125,581.0938 48.3125,578.5156 L48.3125,577.3906 C48.3125,574.6719 50.3125,572.5938 52.9375,572.5938 C53.8125,572.5938 54.4063,572.7344 55.3438,573.1719 Z "/><text fill="#000000" font-family="sans-serif" font-size="12" lengthAdjust="spacingAndGlyphs" textLength="38" x="67" y="581.6543">Token</text><line style="stroke: #A80036; stroke-width: 1.5;" x1="39" x2="107" y1="593.5" y2="593.5"/><line style="stroke: #A80036; stroke-width: 1.5;" x1="39" x2="107" y1="601.5" y2="601.5"/><!--MD5=[ff1db157587b994edba48775b2b49853]
class Lady--><rect fill="#FEFECE" filter="url(#f1q1ynhpn3p2ew)" height="48" id="Lady" style="stroke: #A80036; stroke-width: 1.5;" width="60" x="140" y="689"/><ellipse cx="155" cy="705" fill="#ADD1B2" rx="11" ry="11" style="stroke: #A80036; stroke-width: 1.0;"/><path d="M157.3438,700.6719 L157.5156,700.75 C157.7344,700.4375 157.9375,700.3438 158.2344,700.3438 C158.5313,700.3438 158.8125,700.4844 158.9688,700.75 C159.0625,700.9063 159.0781,701.0313 159.0781,701.4688 L159.0781,702.8906 C159.0781,703.3125 159.0469,703.5 158.9375,703.6563 C158.7656,703.875 158.5,704.0156 158.2344,704.0156 C158.0156,704.0156 157.7813,703.9063 157.6406,703.7656 C157.5,703.6406 157.4688,703.5156 157.4063,703.1094 C157.3125,702.7031 157.1406,702.4844 156.6563,702.2031 C156.1875,701.9531 155.5781,701.7969 155,701.7969 C153.2656,701.7969 152.0156,703.1094 152.0156,704.8906 L152.0156,705.9844 C152.0156,707.6875 153.3125,708.7813 155.3594,708.7813 C156.125,708.7813 156.8125,708.6563 157.2344,708.3906 C157.4219,708.2969 157.4219,708.2969 157.875,707.8125 C158.0625,707.625 158.2656,707.5469 158.4844,707.5469 C158.9531,707.5469 159.3438,707.9375 159.3438,708.3906 C159.3438,708.7813 159.0156,709.2344 158.4375,709.6406 C157.6875,710.1875 156.5313,710.4844 155.3125,710.4844 C152.4219,710.4844 150.3125,708.5938 150.3125,706.0156 L150.3125,704.8906 C150.3125,702.1719 152.3125,700.0938 154.9375,700.0938 C155.8125,700.0938 156.4063,700.2344 157.3438,700.6719 Z "/><text fill="#000000" font-family="sans-serif" font-size="12" lengthAdjust="spacingAndGlyphs" textLength="28" x="169" y="709.1543">Lady</text><line style="stroke: #A80036; stroke-width: 1.5;" x1="141" x2="199" y1="721" y2="721"/><line style="stroke: #A80036; stroke-width: 1.5;" x1="141" x2="199" y1="729" y2="729"/><!--MD5=[af29ca247b3a3642f0fb478cea99ef78]
class Pawn--><rect fill="#FEFECE" filter="url(#f1q1ynhpn3p2ew)" height="48" id="Pawn" style="stroke: #A80036; stroke-width: 1.5;" width="65" x="39.5" y="689"/><ellipse cx="54.5" cy="705" fill="#ADD1B2" rx="11" ry="11" style="stroke: #A80036; stroke-width: 1.0;"/><path d="M56.8438,700.6719 L57.0156,700.75 C57.2344,700.4375 57.4375,700.3438 57.7344,700.3438 C58.0313,700.3438 58.3125,700.4844 58.4688,700.75 C58.5625,700.9063 58.5781,701.0313 58.5781,701.4688 L58.5781,702.8906 C58.5781,703.3125 58.5469,703.5 58.4375,703.6563 C58.2656,703.875 58,704.0156 57.7344,704.0156 C57.5156,704.0156 57.2813,703.9063 57.1406,703.7656 C57,703.6406 56.9688,703.5156 56.9063,703.1094 C56.8125,702.7031 56.6406,702.4844 56.1563,702.2031 C55.6875,701.9531 55.0781,701.7969 54.5,701.7969 C52.7656,701.7969 51.5156,703.1094 51.5156,704.8906 L51.5156,705.9844 C51.5156,707.6875 52.8125,708.7813 54.8594,708.7813 C55.625,708.7813 56.3125,708.6563 56.7344,708.3906 C56.9219,708.2969 56.9219,708.2969 57.375,707.8125 C57.5625,707.625 57.7656,707.5469 57.9844,707.5469 C58.4531,707.5469 58.8438,707.9375 58.8438,708.3906 C58.8438,708.7813 58.5156,709.2344 57.9375,709.6406 C57.1875,710.1875 56.0313,710.4844 54.8125,710.4844 C51.9219,710.4844 49.8125,708.5938 49.8125,706.0156 L49.8125,704.8906 C49.8125,702.1719 51.8125,700.0938 54.4375,700.0938 C55.3125,700.0938 55.9063,700.2344 56.8438,700.6719 Z "/><text fill="#000000" font-family="sans-serif" font-size="12" lengthAdjust="spacingAndGlyphs" textLength="33" x="68.5" y="709.1543">Pawn</text><line style="stroke: #A80036; stroke-width: 1.5;" x1="40.5" x2="103.5" y1="721" y2="721"/><line style="stroke: #A80036; stroke-width: 1.5;" x1="40.5" x2="103.5" y1="729" y2="729"/><!--MD5=[5655ee3e2a0d028d03fe20f829576392]
class Square--><rect fill="#FEFECE" filter="url(#f1q1ynhpn3p2ew)" height="48" id="Square" style="stroke: #A80036; stroke-width: 1.5;" width="77" x="143.5" y="561.5"/><ellipse cx="158.5" cy="577.5" fill="#ADD1B2" rx="11" ry="11" style="stroke: #A80036; stroke-width: 1.0;"/><path d="M160.8438,573.1719 L161.0156,573.25 C161.2344,572.9375 161.4375,572.8438 161.7344,572.8438 C162.0313,572.8438 162.3125,572.9844 162.4688,573.25 C162.5625,573.4063 162.5781,573.5313 162.5781,573.9688 L162.5781,575.3906 C162.5781,575.8125 162.5469,576 162.4375,576.1563 C162.2656,576.375 162,576.5156 161.7344,576.5156 C161.5156,576.5156 161.2813,576.4063 161.1406,576.2656 C161,576.1406 160.9688,576.0156 160.9063,575.6094 C160.8125,575.2031 160.6406,574.9844 160.1563,574.7031 C159.6875,574.4531 159.0781,574.2969 158.5,574.2969 C156.7656,574.2969 155.5156,575.6094 155.5156,577.3906 L155.5156,578.4844 C155.5156,580.1875 156.8125,581.2813 158.8594,581.2813 C159.625,581.2813 160.3125,581.1563 160.7344,580.8906 C160.9219,580.7969 160.9219,580.7969 161.375,580.3125 C161.5625,580.125 161.7656,580.0469 161.9844,580.0469 C162.4531,580.0469 162.8438,580.4375 162.8438,580.8906 C162.8438,581.2813 162.5156,581.7344 161.9375,582.1406 C161.1875,582.6875 160.0313,582.9844 158.8125,582.9844 C155.9219,582.9844 153.8125,581.0938 153.8125,578.5156 L153.8125,577.3906 C153.8125,574.6719 155.8125,572.5938 158.4375,572.5938 C159.3125,572.5938 159.9063,572.7344 160.8438,573.1719 Z "/><text fill="#000000" font-family="sans-serif" font-size="12" lengthAdjust="spacingAndGlyphs" textLength="45" x="172.5" y="581.6543">Square</text><line style="stroke: #A80036; stroke-width: 1.5;" x1="144.5" x2="219.5" y1="593.5" y2="593.5"/><line style="stroke: #A80036; stroke-width: 1.5;" x1="144.5" x2="219.5" y1="601.5" y2="601.5"/><!--MD5=[18eee71c88ab61f27581b8cbdd3ef5ee]
class Color--><rect fill="#FEFECE" filter="url(#f1q1ynhpn3p2ew)" height="73.6094" id="Color" style="stroke: #A80036; stroke-width: 1.5;" width="64" x="263" y="676"/><ellipse cx="278" cy="692" fill="#EB937F" rx="11" ry="11" style="stroke: #A80036; stroke-width: 1.0;"/><path d="M276.2969,692.875 L276.2969,695.2969 L280.6563,695.2969 L280.6563,694.4219 C280.6563,693.9375 280.6875,693.7969 280.7969,693.6406 C280.9688,693.3906 281.2344,693.2813 281.5,693.2813 C281.7813,693.2813 282.0625,693.4375 282.2344,693.6875 C282.3125,693.8438 282.3438,693.9844 282.3438,694.4219 L282.3438,697 L274.3438,697 C273.9531,697 273.7188,696.9531 273.5781,696.8281 C273.3594,696.6719 273.2188,696.4219 273.2188,696.1563 C273.2188,695.8594 273.375,695.5938 273.625,695.4219 C273.7813,695.3125 273.9375,695.2969 274.3438,695.2969 L274.5938,695.2969 L274.5938,688.7813 L274.3438,688.7813 C273.9219,688.7813 273.7344,688.75 273.5781,688.6406 C273.3594,688.4688 273.2188,688.2188 273.2188,687.9375 C273.2188,687.6563 273.375,687.3594 273.625,687.2031 C273.7813,687.1094 273.9063,687.0938 274.3438,687.0938 L281.9688,687.0938 L281.9688,689.6406 C281.9688,690.1094 281.9375,690.25 281.8281,690.4219 C281.6563,690.6406 281.3906,690.7813 281.125,690.7813 C280.8438,690.7813 280.5625,690.625 280.3906,690.375 C280.3125,690.2188 280.2813,690.0469 280.2813,689.6406 L280.2813,688.7813 L276.2969,688.7813 L276.2969,691.1875 L277.75,691.1875 L277.75,691.0625 C277.75,690.6094 277.7813,690.4531 277.8906,690.2813 C278.0625,690.0625 278.3281,689.9219 278.5781,689.9219 C279.0313,689.9219 279.3438,690.2344 279.4063,690.7031 C279.4219,690.8594 279.4219,690.9063 279.4219,691.0625 L279.4219,692.9844 C279.4219,693.4375 279.3906,693.5938 279.2656,693.75 C279.1094,693.9688 278.8438,694.1094 278.5938,694.1094 C278.2969,694.1094 278.0156,693.9531 277.8594,693.7031 C277.7813,693.5469 277.75,693.3906 277.75,692.9844 L277.75,692.875 Z "/><text fill="#000000" font-family="sans-serif" font-size="12" lengthAdjust="spacingAndGlyphs" textLength="32" x="292" y="696.1543">Color</text><line style="stroke: #A80036; stroke-width: 1.5;" x1="264" x2="326" y1="708" y2="708"/><text fill="#000000" font-family="sans-serif" font-size="11" lengthAdjust="spacingAndGlyphs" textLength="34" x="269" y="722.2104">WHITE</text><text fill="#000000" font-family="sans-serif" font-size="11" lengthAdjust="spacingAndGlyphs" textLength="36" x="269" y="735.0151">BLACK</text><line style="stroke: #A80036; stroke-width: 1.5;" x1="264" x2="326" y1="741.6094" y2="741.6094"/><!--MD5=[68946827c62017154c3369ec90197e60]
class Checkers--><rect fill="#FEFECE" filter="url(#f1q1ynhpn3p2ew)" height="60.8047" id="Checkers" style="stroke: #A80036; stroke-width: 1.5;" width="90" x="750" y="8"/><ellipse cx="765" cy="24" fill="#ADD1B2" rx="11" ry="11" style="stroke: #A80036; stroke-width: 1.0;"/><path d="M767.3438,19.6719 L767.5156,19.75 C767.7344,19.4375 767.9375,19.3438 768.2344,19.3438 C768.5313,19.3438 768.8125,19.4844 768.9688,19.75 C769.0625,19.9063 769.0781,20.0313 769.0781,20.4688 L769.0781,21.8906 C769.0781,22.3125 769.0469,22.5 768.9375,22.6563 C768.7656,22.875 768.5,23.0156 768.2344,23.0156 C768.0156,23.0156 767.7813,22.9063 767.6406,22.7656 C767.5,22.6406 767.4688,22.5156 767.4063,22.1094 C767.3125,21.7031 767.1406,21.4844 766.6563,21.2031 C766.1875,20.9531 765.5781,20.7969 765,20.7969 C763.2656,20.7969 762.0156,22.1094 762.0156,23.8906 L762.0156,24.9844 C762.0156,26.6875 763.3125,27.7813 765.3594,27.7813 C766.125,27.7813 766.8125,27.6563 767.2344,27.3906 C767.4219,27.2969 767.4219,27.2969 767.875,26.8125 C768.0625,26.625 768.2656,26.5469 768.4844,26.5469 C768.9531,26.5469 769.3438,26.9375 769.3438,27.3906 C769.3438,27.7813 769.0156,28.2344 768.4375,28.6406 C767.6875,29.1875 766.5313,29.4844 765.3125,29.4844 C762.4219,29.4844 760.3125,27.5938 760.3125,25.0156 L760.3125,23.8906 C760.3125,21.1719 762.3125,19.0938 764.9375,19.0938 C765.8125,19.0938 766.4063,19.2344 767.3438,19.6719 Z "/><text fill="#000000" font-family="sans-serif" font-size="12" lengthAdjust="spacingAndGlyphs" textLength="58" x="779" y="28.1543">Checkers</text><line style="stroke: #A80036; stroke-width: 1.5;" x1="751" x2="839" y1="40" y2="40"/><line style="stroke: #A80036; stroke-width: 1.5;" x1="751" x2="839" y1="48" y2="48"/><ellipse cx="761" cy="59" fill="#84BE84" rx="3" ry="3" style="stroke: #038048; stroke-width: 1.0;"/><text fill="#000000" font-family="sans-serif" font-size="11" lengthAdjust="spacingAndGlyphs" textLength="31" x="770" y="62.2104">play()</text><!--MD5=[46ece005280c86105e815cd18e400245]
link View to AcceptController--><path d="M1067.21,209.041 C1051.55,216.109 1034.4,223.037 1018,228 C923.17,256.7 892.446,234.058 798,264 C766.073,274.122 732.181,290.553 706.217,304.489 " fill="none" id="View-&gt;AcceptController" style="stroke: #A80036; stroke-width: 1.0; stroke-dasharray: 7.0,7.0;"/><polygon fill="#A80036" points="701.792,306.88,711.6113,306.1175,706.1901,304.5017,707.806,299.0805,701.792,306.88" style="stroke: #A80036; stroke-width: 1.0;"/><!--MD5=[133041ae27f6e8a9b7b7e2b7786da445]
link View to ResumeView--><path d="M1121.6752,221.196 C1121.6752,221.196 1117.61,272.149 1115.9,293.59 " fill="none" id="View-ResumeView" style="stroke: #A80036; stroke-width: 1.0;"/><polygon fill="#A80036" points="1114.86,306.734,1119.5625,298.0803,1115.2573,301.7498,1111.5878,297.4446,1114.86,306.734" style="stroke: #A80036; stroke-width: 1.0;"/><line style="stroke: #A80036; stroke-width: 1.0;" x1="1115.2573" x2="1115.885" y1="301.7498" y2="293.7755"/><polygon fill="#A80036" points="1122.63,209.234,1118.1653,214.8967,1121.6752,221.196,1126.1399,215.5333,1122.63,209.234" style="stroke: #A80036; stroke-width: 1.0;"/><!--MD5=[15ce01b34c29fdca6fa627773e8f9e80]
link View to StartView--><path d="M1202.9464,208.3656 C1202.9464,208.3656 1275.03,241.76 1306,264 C1318.91,273.266 1331.37,285.402 1341.76,296.737 " fill="none" id="View-StartView" style="stroke: #A80036; stroke-width: 1.0;"/><polygon fill="#A80036" points="1350.66,306.817,1347.6915,297.4262,1347.3466,303.0725,1341.7003,302.7276,1350.66,306.817" style="stroke: #A80036; stroke-width: 1.0;"/><line style="stroke: #A80036; stroke-width: 1.0;" x1="1347.3466" x2="1342.055" y1="303.0725" y2="297.076"/><polygon fill="#A80036" points="1191.88,203.725,1195.8663,209.7341,1202.9464,208.3656,1198.9601,202.3565,1191.88,203.725" style="stroke: #A80036; stroke-width: 1.0;"/><!--MD5=[4ea51f27d9e550af62ffdb204333193c]
link View to PlayView--><path d="M1156.4304,218.5851 C1156.4304,218.5851 1200.78,273.751 1219.09,296.529 " fill="none" id="View-PlayView" style="stroke: #A80036; stroke-width: 1.0;"/><polygon fill="#A80036" points="1227.29,306.734,1224.7733,297.2121,1224.1592,302.8356,1218.5357,302.2215,1227.29,306.734" style="stroke: #A80036; stroke-width: 1.0;"/><line style="stroke: #A80036; stroke-width: 1.0;" x1="1224.1592" x2="1219.15" y1="302.8356" y2="296.603"/><polygon fill="#A80036" points="1148.91,209.234,1149.5532,216.4164,1156.4304,218.5851,1155.7873,211.4027,1148.91,209.234" style="stroke: #A80036; stroke-width: 1.0;"/><!--MD5=[af4b536823fa52bb7700e02f16c0bb80]
link PlayView to PlayController--><path d="M1218.53,355.095 C1208.8,362.19 1197.42,369.347 1186,374 C1033.75,436.02 979.687,391.038 821,434 C815.816,435.403 810.498,437.029 805.196,438.782 " fill="none" id="PlayView-&gt;PlayController" style="stroke: #A80036; stroke-width: 1.0; stroke-dasharray: 7.0,7.0;"/><polygon fill="#A80036" points="800.336,440.424,810.1428,441.3337,805.0731,438.824,807.5828,433.7544,800.336,440.424" style="stroke: #A80036; stroke-width: 1.0;"/><!--MD5=[3ad0bd69ff7a093d2131bc46b011fe78]
link StartView to StartController--><path d="M1339.2,355.093 C1329.11,362.016 1317.47,369.071 1306,374 C1195.44,421.492 1159.15,406.526 1042,434 C1030.58,436.677 1018.58,439.533 1006.73,442.373 " fill="none" id="StartView-&gt;StartController" style="stroke: #A80036; stroke-width: 1.0; stroke-dasharray: 7.0,7.0;"/><polygon fill="#A80036" points="1001.666,443.589,1011.3526,445.3694,1006.5269,442.4177,1009.4785,437.592,1001.666,443.589" style="stroke: #A80036; stroke-width: 1.0;"/><!--MD5=[4b21c71922f6b938a01287b262bac1e8]
link ResumeView to ResumeController--><path d="M1067,355.074 C1051.71,361.997 1034.4,369.056 1018,374 C866.472,419.678 821.115,398.004 667,434 C662.92,434.953 658.761,435.977 654.571,437.053 " fill="none" id="ResumeView-&gt;ResumeController" style="stroke: #A80036; stroke-width: 1.0; stroke-dasharray: 7.0,7.0;"/><polygon fill="#A80036" points="649.64,438.337,659.3576,439.9399,654.4786,437.077,657.3415,432.1981,649.64,438.337" style="stroke: #A80036; stroke-width: 1.0;"/><!--MD5=[45b955c22ad1d13c4fd92650616cdef4]
link StartView to DashboardView--><path d="M1350.7696,365.7666 C1350.7696,365.7666 1327.14,409.531 1316.85,428.587 " fill="none" id="StartView-DashboardView" style="stroke: #A80036; stroke-width: 1.0;"/><polygon fill="#A80036" points="1310.64,440.083,1318.4377,434.0667,1313.017,435.6842,1311.3996,430.2635,1310.64,440.083" style="stroke: #A80036; stroke-width: 1.0;"/><line style="stroke: #A80036; stroke-width: 1.0;" x1="1313.017" x2="1316.82" y1="435.6842" y2="428.6435"/><polygon fill="#A80036" points="1356.47,355.207,1350.0999,358.5867,1350.7696,365.7666,1357.1397,362.3869,1356.47,355.207" style="stroke: #A80036; stroke-width: 1.0;"/><!--MD5=[340a9fb8d36607f0b5af346777a5f5a9]
link PlayView to DashboardView--><path d="M1259.5934,366.3659 C1259.5934,366.3659 1276.52,409.176 1283.92,427.892 " fill="none" id="PlayView-DashboardView" style="stroke: #A80036; stroke-width: 1.0;"/><polygon fill="#A80036" points="1288.74,440.083,1289.1486,430.2426,1286.9006,435.4336,1281.7096,433.1857,1288.74,440.083" style="stroke: #A80036; stroke-width: 1.0;"/><line style="stroke: #A80036; stroke-width: 1.0;" x1="1286.9006" x2="1283.96" y1="435.4336" y2="427.9935"/><polygon fill="#A80036" points="1255.18,355.207,1253.6671,362.2576,1259.5934,366.3659,1261.1064,359.3153,1255.18,355.207" style="stroke: #A80036; stroke-width: 1.0;"/><!--MD5=[08d63e83308b8a07f4aa3febec224a8a]
link DashboardView to SquareView--><path d="M1298,488.727 C1298,508.057 1298,535.646 1298,556.253 " fill="none" id="DashboardView-&gt;SquareView" style="stroke: #A80036; stroke-width: 1.0; stroke-dasharray: 7.0,7.0;"/><polygon fill="#A80036" points="1298,561.332,1302,552.332,1298,556.332,1294,552.332,1298,561.332" style="stroke: #A80036; stroke-width: 1.0;"/><!--MD5=[5a18198a2e4e4e890fdb28c03f1cb832]
link SquareView to TokenView--><path d="M1298,609.519 C1298,630.351 1298,661.109 1298,683.4904 " fill="none" id="SquareView-&gt;TokenView" style="stroke: #A80036; stroke-width: 1.0; stroke-dasharray: 7.0,7.0;"/><polygon fill="#A80036" points="1298,688.7023,1302,679.7023,1298,683.7023,1294,679.7023,1298,688.7023" style="stroke: #A80036; stroke-width: 1.0;"/><!--MD5=[f165b4dc51fb23ae2f8abee7a18efa47]
reverse link ControllerVisitor to View--><path d="M976.38,276.749 C1011.14,254.002 1050.4,228.314 1079.83,209.054 " fill="none" id="ControllerVisitor&lt;-View" style="stroke: #A80036; stroke-width: 1.0;"/><polygon fill="none" points="979.783,282.888,959.214,287.982,972.117,271.173,979.783,282.888" style="stroke: #A80036; stroke-width: 1.0;"/><!--MD5=[153babd62505a2f5355991eb7c8026e3]
link Logic to State--><path d="M400.303,198.3333 C400.303,198.3333 308.374,233.924 270,264 C258.799,272.779 248.784,284.638 240.712,295.883 " fill="none" id="Logic-State" style="stroke: #A80036; stroke-width: 1.0;"/><polygon fill="#A80036" points="233.317,306.785,241.6793,301.582,236.1236,302.647,235.0586,297.0913,233.317,306.785" style="stroke: #A80036; stroke-width: 1.0;"/><line style="stroke: #A80036; stroke-width: 1.0;" x1="236.1236" x2="240.6145" y1="302.647" y2="296.027"/><polygon fill="#A80036" points="411.691,194.55,404.7359,192.6456,400.303,198.3333,407.2581,200.2376,411.691,194.55" style="stroke: #A80036; stroke-width: 1.0;"/><!--MD5=[6741a2aa1692821dc3ed1fc83dbb2896]
link Logic to Game--><path d="M410.951,237.0334 C410.951,237.0334 370.195,279.629 353.595,296.978 " fill="none" id="Logic-Game" style="stroke: #A80036; stroke-width: 1.0;"/><polygon fill="#A80036" points="344.356,306.635,353.4681,302.8975,347.8126,303.0223,347.6878,297.3668,344.356,306.635" style="stroke: #A80036; stroke-width: 1.0;"/><line style="stroke: #A80036; stroke-width: 1.0;" x1="347.8126" x2="353.3425" y1="303.0223" y2="297.2425"/><polygon fill="#A80036" points="419.247,228.363,412.2089,229.9329,410.951,237.0334,417.9892,235.4636,419.247,228.363" style="stroke: #A80036; stroke-width: 1.0;"/><!--MD5=[8274c24dc463c9eebed4862afdd856c5]
link Logic to AcceptController--><path d="M529.5946,228.3316 C529.5946,228.3316 595.241,278.738 621.499,298.901 " fill="none" id="Logic-AcceptController" style="stroke: #A80036; stroke-width: 1.0;"/><polygon fill="#A80036" points="631.833,306.836,627.1305,298.1823,627.8671,303.791,622.2585,304.5277,631.833,306.836" style="stroke: #A80036; stroke-width: 1.0;"/><line style="stroke: #A80036; stroke-width: 1.0;" x1="627.8671" x2="621.522" y1="303.791" y2="298.919"/><polygon fill="#A80036" points="520.077,221.023,522.3996,227.8498,529.5946,228.3316,527.272,221.5048,520.077,221.023" style="stroke: #A80036; stroke-width: 1.0;"/><!--MD5=[b0947e3cca87a77fbffda6d48d7790e6]
reverse link Controller to MoveController--><path d="M558.75,217.716 C551.41,221.221 544.074,224.694 537,228 C501.678,244.509 479.59,232.221 457,264 C397.391,347.855 403.857,399.449 442,495 C451.375,518.484 470.166,539.334 487.702,554.989 " fill="none" id="Controller&lt;-MoveController" style="stroke: #A80036; stroke-width: 1.0;"/><polygon fill="none" points="555.792,211.372,576.85,209.018,561.856,223.99,555.792,211.372" style="stroke: #A80036; stroke-width: 1.0;"/><!--MD5=[900af1555c72373125471872158a0f93]
reverse link Controller to CancelController--><path d="M584.398,222.213 C513.76,284.816 404.194,403.924 469,495 C474.789,503.136 584.731,539.336 659.211,563.132 " fill="none" id="Controller&lt;-CancelController" style="stroke: #A80036; stroke-width: 1.0;"/><polygon fill="none" points="579.957,216.799,599.665,209.015,589.113,227.391,579.957,216.799" style="stroke: #A80036; stroke-width: 1.0;"/><!--MD5=[f9df1e34f2c028c8cd7043c1ab9b64d0]
reverse link Controller to AcceptController--><path d="M645.276,229.32 C649.612,255.423 654.716,286.152 658.135,306.734 " fill="none" id="Controller&lt;-AcceptController" style="stroke: #A80036; stroke-width: 1.0;"/><polygon fill="none" points="638.311,230.111,641.939,209.234,652.122,227.817,638.311,230.111" style="stroke: #A80036; stroke-width: 1.0;"/><!--MD5=[72295546c13625fddb4c5eca39908753]
reverse link AcceptController to StartController--><path d="M725.116,364.17 C766.788,385.41 820.999,413.04 861.662,433.766 " fill="none" id="AcceptController&lt;-StartController" style="stroke: #A80036; stroke-width: 1.0;"/><polygon fill="none" points="721.876,370.375,707.235,355.056,728.233,357.902,721.876,370.375" style="stroke: #A80036; stroke-width: 1.0;"/><!--MD5=[feab61106622d1822bc631578de931b6]
reverse link AcceptController to PlayController--><path d="M687.252,372.495 C701.078,394.668 717.722,421.359 729.398,440.083 " fill="none" id="AcceptController&lt;-PlayController" style="stroke: #A80036; stroke-width: 1.0;"/><polygon fill="none" points="681.114,375.882,676.471,355.207,692.994,368.474,681.114,375.882" style="stroke: #A80036; stroke-width: 1.0;"/><!--MD5=[bac20b7b9aa714c57ebbf18e903dc8c3]
reverse link AcceptController to ResumeController--><path d="M633.767,371.496 C619.521,391.425 602.524,415.203 589.378,433.594 " fill="none" id="AcceptController&lt;-ResumeController" style="stroke: #A80036; stroke-width: 1.0;"/><polygon fill="none" points="628.086,367.407,645.411,355.207,639.475,375.548,628.086,367.407" style="stroke: #A80036; stroke-width: 1.0;"/><!--MD5=[b94394660510484de355bb836dd48dea]
link PlayController to CancelController--><path d="M738.9849,500.6064 C738.9849,500.6064 734.31,533.333 732.207,548.05 " fill="none" id="PlayController-CancelController" style="stroke: #A80036; stroke-width: 1.0;"/><polygon fill="#A80036" points="730.31,561.332,735.5426,552.9881,731.0171,556.3823,727.623,551.8568,730.31,561.332" style="stroke: #A80036; stroke-width: 1.0;"/><line style="stroke: #A80036; stroke-width: 1.0;" x1="731.0171" x2="732.1485" y1="556.3823" y2="548.4625"/><polygon fill="#A80036" points="740.682,488.727,735.8737,494.101,738.9849,500.6064,743.7933,495.2324,740.682,488.727" style="stroke: #A80036; stroke-width: 1.0;"/><!--MD5=[bc6967f4e83122b7de6ea8c688cbf195]
link PlayController to MoveController--><path d="M691.3809,494.3544 C691.3809,494.3544 623.755,531.441 592.578,548.538 " fill="none" id="PlayController-MoveController" style="stroke: #A80036; stroke-width: 1.0;"/><polygon fill="#A80036" points="580.932,554.924,590.7466,554.1034,585.316,552.5197,586.8997,547.089,580.932,554.924" style="stroke: #A80036; stroke-width: 1.0;"/><line style="stroke: #A80036; stroke-width: 1.0;" x1="585.316" x2="592.331" y1="552.5197" y2="548.6735"/><polygon fill="#A80036" points="701.903,488.585,694.7188,487.9623,691.3809,494.3544,698.5651,494.9771,701.903,488.585" style="stroke: #A80036; stroke-width: 1.0;"/><!--MD5=[af3c341f28b4ad1078e652ece2043f79]
link Controller to Game--><path d="M570.1455,214.1941 C570.1455,214.1941 547.598,224.122 537,228 C476.261,250.225 453.093,233.61 396,264 C379.933,272.553 364.514,285.299 351.949,297.316 " fill="none" id="Controller-Game" style="stroke: #A80036; stroke-width: 1.0;"/><polygon fill="#A80036" points="342.527,306.704,351.726,303.1856,346.0691,303.1751,346.0797,297.5182,342.527,306.704" style="stroke: #A80036; stroke-width: 1.0;"/><line style="stroke: #A80036; stroke-width: 1.0;" x1="346.0691" x2="351.7365" y1="303.1751" y2="297.5285"/><polygon fill="#FFFFFF" points="581.012,209.103,573.8817,208.0264,570.1455,214.1941,577.2758,215.2707,581.012,209.103" style="stroke: #A80036; stroke-width: 1.0;"/><!--MD5=[b7c97198a8465aaa8af5c3e151e149b4]
link ControllerVisitor to StartController--><path d="M903.048,374.331 C906.385,391.886 910.21,412.003 913.38,428.681 " fill="none" id="ControllerVisitor-&gt;StartController" style="stroke: #A80036; stroke-width: 1.0; stroke-dasharray: 7.0,7.0;"/><polygon fill="#A80036" points="914.342,433.74,916.5902,424.1512,913.4079,428.828,908.731,425.6458,914.342,433.74" style="stroke: #A80036; stroke-width: 1.0;"/><!--MD5=[f44f74108ce84f5ab491116a84e9f01b]
link ControllerVisitor to PlayController--><path d="M846.391,374.331 C822.79,394.885 795.156,418.95 774.548,436.897 " fill="none" id="ControllerVisitor-&gt;PlayController" style="stroke: #A80036; stroke-width: 1.0; stroke-dasharray: 7.0,7.0;"/><polygon fill="#A80036" points="770.524,440.402,779.9381,437.508,774.2947,437.1184,774.6843,431.475,770.524,440.402" style="stroke: #A80036; stroke-width: 1.0;"/><!--MD5=[810b6c8911a92598225ef40ac9e44ba7]
link ControllerVisitor to ResumeController--><path d="M815.425,364 C764.054,384.659 697.518,411.416 646.384,431.979 " fill="none" id="ControllerVisitor-&gt;ResumeController" style="stroke: #A80036; stroke-width: 1.0; stroke-dasharray: 7.0,7.0;"/><polygon fill="#A80036" points="641.484,433.949,651.3265,434.3016,646.1228,432.0832,648.3412,426.8795,641.484,433.949" style="stroke: #A80036; stroke-width: 1.0;"/><!--MD5=[cb089a62f1fc486572c7972532bafb02]
link Checkers to Logic--><path d="M737.8122,45.087 C737.8122,45.087 570.715,66.321 538,86 C524.468,94.14 512.489,105.834 502.377,118.153 " fill="none" id="Checkers-Logic" style="stroke: #A80036; stroke-width: 1.0;"/><polygon fill="#A80036" points="494.328,128.585,502.9927,123.9028,497.3823,124.6263,496.6588,119.0159,494.328,128.585" style="stroke: #A80036; stroke-width: 1.0;"/><line style="stroke: #A80036; stroke-width: 1.0;" x1="497.3823" x2="502.2695" y1="124.6263" y2="118.2925"/><polygon fill="#A80036" points="749.743,43.8,743.3486,40.4666,737.8122,45.087,744.2066,48.4204,749.743,43.8" style="stroke: #A80036; stroke-width: 1.0;"/><!--MD5=[0f1132422623d848aacba6b2aeca9a5e]
link Checkers to View--><path d="M840.291,42.321 C886.925,46.707 960.671,57.844 1018,86 C1047,100.243 1074.58,124.173 1094.48,143.989 " fill="none" id="Checkers-&gt;View" style="stroke: #A80036; stroke-width: 1.0;"/><polygon fill="#A80036" points="1098.35,147.893,1094.8424,138.6899,1094.8252,144.3468,1089.1684,144.3296,1098.35,147.893" style="stroke: #A80036; stroke-width: 1.0;"/><!--MD5=[64ae1000c36cefe67a281dae92f37e40]
link Game to Dashboard--><path d="M286.7086,363.1484 C286.7086,363.1484 232.445,411.037 209.134,431.61 " fill="none" id="Game-Dashboard" style="stroke: #A80036; stroke-width: 1.0;"/><polygon fill="#A80036" points="199.283,440.304,208.6779,437.3482,203.032,436.9957,203.3845,431.3498,199.283,440.304" style="stroke: #A80036; stroke-width: 1.0;"/><line style="stroke: #A80036; stroke-width: 1.0;" x1="203.032" x2="209.0295" y1="436.9957" y2="431.7025"/><polygon fill="#A80036" points="295.705,355.207,288.5597,356.1789,286.7086,363.1484,293.8539,362.1765,295.705,355.207" style="stroke: #A80036; stroke-width: 1.0;"/><!--MD5=[b9f1e39ad85d50fe6f3a071a4341c320]
link Game to Turn--><path d="M323.0713,367.2014 C323.0713,367.2014 324.331,408.619 324.888,426.939 " fill="none" id="Game-Turn" style="stroke: #A80036; stroke-width: 1.0;"/><polygon fill="#A80036" points="325.288,440.083,329.0122,430.9654,325.1358,435.0853,321.0159,431.2089,325.288,440.083" style="stroke: #A80036; stroke-width: 1.0;"/><line style="stroke: #A80036; stroke-width: 1.0;" x1="325.1358" x2="324.892" y1="435.0853" y2="427.0885"/><polygon fill="#A80036" points="322.706,355.207,318.8905,361.326,323.0713,367.2014,326.8868,361.0825,322.706,355.207" style="stroke: #A80036; stroke-width: 1.0;"/><!--MD5=[1a0cf06120a956b80e7a42bb075f06c6]
link Game to Error--><path d="M308.838,355.008 C298.139,375.118 283.889,405.48 278,434 C269.343,475.922 275.42,525.701 280.938,556.19 " fill="none" id="Game-&gt;Error" style="stroke: #A80036; stroke-width: 1.0; stroke-dasharray: 7.0,7.0;"/><polygon fill="#A80036" points="281.887,561.283,284.1712,551.7027,280.9713,556.3676,276.3065,553.1677,281.887,561.283" style="stroke: #A80036; stroke-width: 1.0;"/><!--MD5=[7d94eeaadaf598d8107b479dba1b2941]
link Dashboard to Error--><path d="M195.251,488.727 C214.161,508.466 241.322,536.819 261.185,557.553 " fill="none" id="Dashboard-&gt;Error" style="stroke: #A80036; stroke-width: 1.0; stroke-dasharray: 7.0,7.0;"/><polygon fill="#A80036" points="264.805,561.332,261.4652,552.0667,261.3453,557.7223,255.6897,557.6023,264.805,561.332" style="stroke: #A80036; stroke-width: 1.0;"/><!--MD5=[154f2bb56f79ee09018871fe08a1e8f9]
link Turn to Color--><path d="M334.2672,500.2932 C334.2672,500.2932 348.342,593.386 336,640 C333.824,648.218 330.468,656.48 326.592,664.326 " fill="none" id="Turn-Color" style="stroke: #A80036; stroke-width: 1.0;"/><polygon fill="#A80036" points="320.396,675.856,328.1794,669.8211,322.7625,671.4515,321.1322,666.0347,320.396,675.856" style="stroke: #A80036; stroke-width: 1.0;"/><line style="stroke: #A80036; stroke-width: 1.0;" x1="322.7625" x2="326.549" y1="671.4515" y2="664.4045"/><polygon fill="#A80036" points="331.817,488.546,329.1264,495.2363,334.2672,500.2932,336.9578,493.6029,331.817,488.546" style="stroke: #A80036; stroke-width: 1.0;"/><!--MD5=[1cbc9ca620dd27d18f84c0ce12bfd858]
link Dashboard to Square--><path d="M175.6616,500.6929 C175.6616,500.6929 178.13,533.333 179.243,548.05 " fill="none" id="Dashboard-Square" style="stroke: #A80036; stroke-width: 1.0;"/><polygon fill="#A80036" points="180.248,561.332,183.5581,552.0561,179.8711,556.3462,175.5809,552.6592,180.248,561.332" style="stroke: #A80036; stroke-width: 1.0;"/><line style="stroke: #A80036; stroke-width: 1.0;" x1="179.8711" x2="179.267" y1="556.3462" y2="548.369"/><polygon fill="#A80036" points="174.757,488.727,171.2207,495.0115,175.6616,500.6929,179.1979,494.4084,174.757,488.727" style="stroke: #A80036; stroke-width: 1.0;"/><!--MD5=[a005075424de0f8b13371ca0bc50e830]
link Dashboard to Token--><path d="M145.7609,497.9131 C145.7609,497.9131 114.736,534.834 101.0253,551.15 " fill="none" id="Dashboard-Token" style="stroke: #A80036; stroke-width: 1.0;"/><polygon fill="#A80036" points="92.4692,561.332,101.3214,557.0148,95.6858,557.504,95.1966,551.8683,92.4692,561.332" style="stroke: #A80036; stroke-width: 1.0;"/><line style="stroke: #A80036; stroke-width: 1.0;" x1="95.6858" x2="100.8327" y1="557.504" y2="551.379"/><polygon fill="#A80036" points="153.482,488.727,146.5594,490.7464,145.7609,497.9131,152.6835,495.8938,153.482,488.727" style="stroke: #A80036; stroke-width: 1.0;"/><!--MD5=[304335c530676c0c2555e056aeeb939b]
link Token to Color--><path d="M100.1364,618.1933 C100.1364,618.1933 117.1,634.126 126,640 C162.3,663.96 177.017,658.88 217,676 C228.057,680.734 239.889,686.0588 250.91,691.1314 " fill="none" id="Token-Color" style="stroke: #A80036; stroke-width: 1.0;"/><polygon fill="#A80036" points="262.923,696.7067,256.4433,689.2896,258.3877,694.6018,253.0755,696.5461,262.923,696.7067" style="stroke: #A80036; stroke-width: 1.0;"/><line style="stroke: #A80036; stroke-width: 1.0;" x1="258.3877" x2="251.1315" y1="694.6018" y2="691.2342"/><polygon fill="#A80036" points="91.8591,609.505,93.1016,616.6082,100.1364,618.1933,98.8938,611.0901,91.8591,609.505" style="stroke: #A80036; stroke-width: 1.0;"/><!--MD5=[bb154da585345b498b502d66f6f0f54d]
reverse link Token to Pawn--><path d="M72.6551,629.786 C72.4975,649.56 72.3172,672.195 72.1856,688.7023 " fill="none" id="Token&lt;-Pawn" style="stroke: #A80036; stroke-width: 1.0;"/><polygon fill="none" points="65.6574,629.462,72.8166,609.519,79.6569,629.574,65.6574,629.462" style="stroke: #A80036; stroke-width: 1.0;"/><!--MD5=[6d002b3492eab02610f538feb953309d]
reverse link Token to Lady--><path d="M103.064,625.397 C119.093,646.136 138.279,670.959 151.993,688.7023 " fill="none" id="Token&lt;-Lady" style="stroke: #A80036; stroke-width: 1.0;"/><polygon fill="none" points="97.4836,629.624,90.7913,609.519,108.561,621.062,97.4836,629.624" style="stroke: #A80036; stroke-width: 1.0;"/><!--MD5=[90d2b72884894f17437ff1e748f90997]
@startuml
class Checkers{
+ play()
}
package checkers.controllers {
class Logic {
+ state: State
- controllers
+ game: Game
+ getController()
}
abstract class Controller {
+ accept(ControllerVisitor)
}
abstract class ControllerVisitor {
+ visit(StartController)
+ visit(MoveController)
+ visit(ResumeController)
}


class AcceptController

class MoveController {
+ accept(ControllerVisitor)
}
class StartController {
+ accept(ControllerVisitor)
}
class ResumeController{ 
+ accept(ControllerVisitor)
}
class CancelController{
}

class PlayController {
}

}

package checkers.views {
abstract class View{
+ interact(Controller)
}

class DashboardView

class ResumeView
class StartView
class PlayView
class SquareView
class TokenView
}

package checkers.models {

class Dashboard {

}

class Error {

}

class State
class Game
class Turn


class Token {

}

class Lady
class Pawn
class Square

enum Color{
WHITE
BLACK
}
}

View ..> AcceptController
View *- -> ResumeView
View *- -> StartView
View *- -> PlayView

PlayView ..> PlayController
StartView ..> StartController
ResumeView ..> ResumeController

StartView *- -> DashboardView
PlayView *- -> DashboardView

DashboardView ..> SquareView
SquareView ..> TokenView

ControllerVisitor <|- - View
Logic *- -> State
Logic *- -> Game

Logic *- -> AcceptController

Controller <|- - MoveController 
Controller <|- - CancelController 
Controller <|- - AcceptController

AcceptController <|- - StartController
AcceptController <|- - PlayController
AcceptController <|- - ResumeController

PlayController *- -> CancelController
PlayController *- -> MoveController

Controller o- -> Game

ControllerVisitor ..> StartController
ControllerVisitor ..> PlayController
ControllerVisitor ..> ResumeController

Checkers *- -> Logic
Checkers - -> View

Game *- -> Dashboard

Game *- -> Turn
Game ..> Error
Dashboard ..> Error
Turn *- -> Color
Dashboard *- -> Square
Dashboard *- -> Token
Token *- -> Color

Token <|- - Pawn
Token <|- - Lady
@enduml

PlantUML version 1.2019.12beta6(Unknown compile time)
(GPL source distribution)
Java Runtime: Java(TM) SE Runtime Environment
JVM: Java HotSpot(TM) 64-Bit Server VM
Java Version: 1.7.0_25-b15
Operating System: Linux
Default Encoding: UTF-8
Language: en
Country: US
--></g></svg>